<mxfile host="65bd71144e" pages="6">
    <diagram id="MBXG7NeOPf5NfXqjLmpO" name="Modules">
        <mxGraphModel dx="1207" dy="490" grid="1" gridSize="10" guides="1" tooltips="1" connect="1" arrows="1" fold="1" page="1" pageScale="1" pageWidth="827" pageHeight="1169" math="0" shadow="0">
            <root>
                <mxCell id="1QKsMohGoa9y5jCU7wIQ-0"/>
                <mxCell id="1QKsMohGoa9y5jCU7wIQ-1" parent="1QKsMohGoa9y5jCU7wIQ-0"/>
                <mxCell id="mRxTjwE48lLAvApMLcq9-0" value="Material Module" style="shape=folder;fontStyle=1;spacingTop=10;tabWidth=40;tabHeight=14;tabPosition=left;html=1;" parent="1QKsMohGoa9y5jCU7wIQ-1" vertex="1">
                    <mxGeometry x="344" y="350" width="140" height="100" as="geometry"/>
                </mxCell>
                <mxCell id="mRxTjwE48lLAvApMLcq9-1" value="User Module" style="shape=folder;fontStyle=1;spacingTop=10;tabWidth=40;tabHeight=14;tabPosition=left;html=1;" parent="1QKsMohGoa9y5jCU7wIQ-1" vertex="1">
                    <mxGeometry x="344" y="120" width="140" height="100" as="geometry"/>
                </mxCell>
                <mxCell id="4-rCH0PKXlayrM78DOX7-2" style="edgeStyle=none;html=1;exitX=0;exitY=0;exitDx=90;exitDy=14;exitPerimeter=0;entryX=0;entryY=0;entryDx=0;entryDy=57;entryPerimeter=0;" parent="1QKsMohGoa9y5jCU7wIQ-1" source="mRxTjwE48lLAvApMLcq9-2" target="mRxTjwE48lLAvApMLcq9-1" edge="1">
                    <mxGeometry relative="1" as="geometry">
                        <Array as="points">
                            <mxPoint x="190" y="177"/>
                        </Array>
                    </mxGeometry>
                </mxCell>
                <mxCell id="bCMpFvM8o3q3DZgxC0Kz-1" style="edgeStyle=none;html=1;exitX=0;exitY=0;exitDx=140;exitDy=57;exitPerimeter=0;entryX=0.25;entryY=1;entryDx=0;entryDy=0;entryPerimeter=0;" parent="1QKsMohGoa9y5jCU7wIQ-1" source="mRxTjwE48lLAvApMLcq9-2" target="mRxTjwE48lLAvApMLcq9-0" edge="1">
                    <mxGeometry relative="1" as="geometry">
                        <Array as="points">
                            <mxPoint x="379" y="527"/>
                        </Array>
                    </mxGeometry>
                </mxCell>
                <mxCell id="mRxTjwE48lLAvApMLcq9-2" value="Inspection&amp;nbsp;Module" style="shape=folder;fontStyle=1;spacingTop=10;tabWidth=40;tabHeight=14;tabPosition=left;html=1;" parent="1QKsMohGoa9y5jCU7wIQ-1" vertex="1">
                    <mxGeometry x="100" y="470" width="140" height="100" as="geometry"/>
                </mxCell>
                <mxCell id="bCMpFvM8o3q3DZgxC0Kz-0" style="edgeStyle=none;html=1;exitX=0;exitY=0;exitDx=90;exitDy=14;exitPerimeter=0;entryX=0;entryY=0;entryDx=140;entryDy=57;entryPerimeter=0;" parent="1QKsMohGoa9y5jCU7wIQ-1" source="mRxTjwE48lLAvApMLcq9-3" target="mRxTjwE48lLAvApMLcq9-1" edge="1">
                    <mxGeometry relative="1" as="geometry">
                        <Array as="points">
                            <mxPoint x="720" y="177"/>
                        </Array>
                    </mxGeometry>
                </mxCell>
                <mxCell id="bCMpFvM8o3q3DZgxC0Kz-2" style="edgeStyle=none;html=1;exitX=0;exitY=0;exitDx=0;exitDy=57;exitPerimeter=0;entryX=0.75;entryY=1;entryDx=0;entryDy=0;entryPerimeter=0;" parent="1QKsMohGoa9y5jCU7wIQ-1" source="mRxTjwE48lLAvApMLcq9-3" target="mRxTjwE48lLAvApMLcq9-0" edge="1">
                    <mxGeometry relative="1" as="geometry">
                        <Array as="points">
                            <mxPoint x="449" y="527"/>
                        </Array>
                    </mxGeometry>
                </mxCell>
                <mxCell id="mRxTjwE48lLAvApMLcq9-3" value="Rental Module" style="shape=folder;fontStyle=1;spacingTop=10;tabWidth=40;tabHeight=14;tabPosition=left;html=1;" parent="1QKsMohGoa9y5jCU7wIQ-1" vertex="1">
                    <mxGeometry x="630" y="470" width="140" height="100" as="geometry"/>
                </mxCell>
            </root>
        </mxGraphModel>
    </diagram>
    <diagram id="gjkyjqV6yiwr9FGPg1I1" name="Material Modul">
        <mxGraphModel dx="1207" dy="490" grid="1" gridSize="10" guides="1" tooltips="1" connect="1" arrows="1" fold="1" page="1" pageScale="1" pageWidth="827" pageHeight="1169" math="0" shadow="0">
            <root>
                <mxCell id="0"/>
                <mxCell id="1" parent="0"/>
                <mxCell id="Qb3wGNk62sx9fdYkHj4Q-1" value="Material-Type" style="swimlane;fontStyle=2;align=center;verticalAlign=top;childLayout=stackLayout;horizontal=1;startSize=26;horizontalStack=0;resizeParent=1;resizeLast=0;collapsible=1;marginBottom=0;rounded=0;shadow=0;strokeWidth=1;" parent="1" vertex="1">
                    <mxGeometry x="331" y="491" width="160" height="109" as="geometry">
                        <mxRectangle x="230" y="140" width="160" height="26" as="alternateBounds"/>
                    </mxGeometry>
                </mxCell>
                <mxCell id="Qb3wGNk62sx9fdYkHj4Q-2" value="TypeID" style="text;align=left;verticalAlign=top;spacingLeft=4;spacingRight=4;overflow=hidden;rotatable=0;points=[[0,0.5],[1,0.5]];portConstraint=eastwest;fontStyle=5" parent="Qb3wGNk62sx9fdYkHj4Q-1" vertex="1">
                    <mxGeometry y="26" width="160" height="26" as="geometry"/>
                </mxCell>
                <mxCell id="Qb3wGNk62sx9fdYkHj4Q-3" value="Name" style="text;align=left;verticalAlign=top;spacingLeft=4;spacingRight=4;overflow=hidden;rotatable=0;points=[[0,0.5],[1,0.5]];portConstraint=eastwest;rounded=0;shadow=0;html=0;" parent="Qb3wGNk62sx9fdYkHj4Q-1" vertex="1">
                    <mxGeometry y="52" width="160" height="26" as="geometry"/>
                </mxCell>
                <mxCell id="Qb3wGNk62sx9fdYkHj4Q-4" value="Description" style="text;align=left;verticalAlign=top;spacingLeft=4;spacingRight=4;overflow=hidden;rotatable=0;points=[[0,0.5],[1,0.5]];portConstraint=eastwest;rounded=0;shadow=0;html=0;" parent="Qb3wGNk62sx9fdYkHj4Q-1" vertex="1">
                    <mxGeometry y="78" width="160" height="26" as="geometry"/>
                </mxCell>
                <mxCell id="Qb3wGNk62sx9fdYkHj4Q-5" value="Material" style="swimlane;fontStyle=2;align=center;verticalAlign=top;childLayout=stackLayout;horizontal=1;startSize=26;horizontalStack=0;resizeParent=1;resizeLast=0;collapsible=1;marginBottom=0;rounded=0;shadow=0;strokeWidth=1;" parent="1" vertex="1">
                    <mxGeometry x="40" y="40" width="190" height="338" as="geometry">
                        <mxRectangle x="679" y="417" width="160" height="26" as="alternateBounds"/>
                    </mxGeometry>
                </mxCell>
                <mxCell id="Qb3wGNk62sx9fdYkHj4Q-6" value="MaterialID" style="text;align=left;verticalAlign=top;spacingLeft=4;spacingRight=4;overflow=hidden;rotatable=0;points=[[0,0.5],[1,0.5]];portConstraint=eastwest;fontStyle=5" parent="Qb3wGNk62sx9fdYkHj4Q-5" vertex="1">
                    <mxGeometry y="26" width="190" height="26" as="geometry"/>
                </mxCell>
                <mxCell id="WgofeBNioAkmx63_h2Rp-14" value="MaterialTypeID" style="text;align=left;verticalAlign=top;spacingLeft=4;spacingRight=4;overflow=hidden;rotatable=0;points=[[0,0.5],[1,0.5]];portConstraint=eastwest;fontStyle=5" parent="Qb3wGNk62sx9fdYkHj4Q-5" vertex="1">
                    <mxGeometry y="52" width="190" height="26" as="geometry"/>
                </mxCell>
                <mxCell id="TGt6erNaDOwpADeeB8BF-1" value="PurchaseDetailsID" style="text;align=left;verticalAlign=top;spacingLeft=4;spacingRight=4;overflow=hidden;rotatable=0;points=[[0,0.5],[1,0.5]];portConstraint=eastwest;fontStyle=5" parent="Qb3wGNk62sx9fdYkHj4Q-5" vertex="1">
                    <mxGeometry y="78" width="190" height="26" as="geometry"/>
                </mxCell>
                <mxCell id="Qb3wGNk62sx9fdYkHj4Q-8" value="Name" style="text;align=left;verticalAlign=top;spacingLeft=4;spacingRight=4;overflow=hidden;rotatable=0;points=[[0,0.5],[1,0.5]];portConstraint=eastwest;rounded=0;shadow=0;html=0;" parent="Qb3wGNk62sx9fdYkHj4Q-5" vertex="1">
                    <mxGeometry y="104" width="190" height="26" as="geometry"/>
                </mxCell>
                <mxCell id="Qb3wGNk62sx9fdYkHj4Q-10" value="Max Operating Date" style="text;align=left;verticalAlign=top;spacingLeft=4;spacingRight=4;overflow=hidden;rotatable=0;points=[[0,0.5],[1,0.5]];portConstraint=eastwest;rounded=0;shadow=0;html=0;" parent="Qb3wGNk62sx9fdYkHj4Q-5" vertex="1">
                    <mxGeometry y="130" width="190" height="26" as="geometry"/>
                </mxCell>
                <mxCell id="Qb3wGNk62sx9fdYkHj4Q-11" value="Max Days Used" style="text;align=left;verticalAlign=top;spacingLeft=4;spacingRight=4;overflow=hidden;rotatable=0;points=[[0,0.5],[1,0.5]];portConstraint=eastwest;rounded=0;shadow=0;html=0;" parent="Qb3wGNk62sx9fdYkHj4Q-5" vertex="1">
                    <mxGeometry y="156" width="190" height="26" as="geometry"/>
                </mxCell>
                <mxCell id="Qb3wGNk62sx9fdYkHj4Q-12" value="Days Used" style="text;align=left;verticalAlign=top;spacingLeft=4;spacingRight=4;overflow=hidden;rotatable=0;points=[[0,0.5],[1,0.5]];portConstraint=eastwest;rounded=0;shadow=0;html=0;" parent="Qb3wGNk62sx9fdYkHj4Q-5" vertex="1">
                    <mxGeometry y="182" width="190" height="26" as="geometry"/>
                </mxCell>
                <mxCell id="Qb3wGNk62sx9fdYkHj4Q-13" value="Instructions" style="text;align=left;verticalAlign=top;spacingLeft=4;spacingRight=4;overflow=hidden;rotatable=0;points=[[0,0.5],[1,0.5]];portConstraint=eastwest;rounded=0;shadow=0;html=0;" parent="Qb3wGNk62sx9fdYkHj4Q-5" vertex="1">
                    <mxGeometry y="208" width="190" height="26" as="geometry"/>
                </mxCell>
                <mxCell id="Qb3wGNk62sx9fdYkHj4Q-14" value="Next Inspection Date" style="text;align=left;verticalAlign=top;spacingLeft=4;spacingRight=4;overflow=hidden;rotatable=0;points=[[0,0.5],[1,0.5]];portConstraint=eastwest;rounded=0;shadow=0;html=0;" parent="Qb3wGNk62sx9fdYkHj4Q-5" vertex="1">
                    <mxGeometry y="234" width="190" height="26" as="geometry"/>
                </mxCell>
                <mxCell id="Qb3wGNk62sx9fdYkHj4Q-16" value="Rental Fee" style="text;align=left;verticalAlign=top;spacingLeft=4;spacingRight=4;overflow=hidden;rotatable=0;points=[[0,0.5],[1,0.5]];portConstraint=eastwest;rounded=0;shadow=0;html=0;" parent="Qb3wGNk62sx9fdYkHj4Q-5" vertex="1">
                    <mxGeometry y="260" width="190" height="26" as="geometry"/>
                </mxCell>
                <mxCell id="Qb3wGNk62sx9fdYkHj4Q-17" value="Condition" style="text;align=left;verticalAlign=top;spacingLeft=4;spacingRight=4;overflow=hidden;rotatable=0;points=[[0,0.5],[1,0.5]];portConstraint=eastwest;rounded=0;shadow=0;html=0;" parent="Qb3wGNk62sx9fdYkHj4Q-5" vertex="1">
                    <mxGeometry y="286" width="190" height="26" as="geometry"/>
                </mxCell>
                <mxCell id="NcE37d9n81_v_LJHgIM3-1" value="Instalation Date" style="text;align=left;verticalAlign=top;spacingLeft=4;spacingRight=4;overflow=hidden;rotatable=0;points=[[0,0.5],[1,0.5]];portConstraint=eastwest;rounded=0;shadow=0;html=0;" vertex="1" parent="Qb3wGNk62sx9fdYkHj4Q-5">
                    <mxGeometry y="312" width="190" height="26" as="geometry"/>
                </mxCell>
                <mxCell id="Qb3wGNk62sx9fdYkHj4Q-19" value="Purchase-Details" style="swimlane;fontStyle=2;align=center;verticalAlign=top;childLayout=stackLayout;horizontal=1;startSize=26;horizontalStack=0;resizeParent=1;resizeLast=0;collapsible=1;marginBottom=0;rounded=0;shadow=0;strokeWidth=1;" parent="1" vertex="1">
                    <mxGeometry x="331" y="200" width="210" height="190" as="geometry">
                        <mxRectangle x="230" y="140" width="160" height="26" as="alternateBounds"/>
                    </mxGeometry>
                </mxCell>
                <mxCell id="Qb3wGNk62sx9fdYkHj4Q-20" value="PurchaseID" style="text;align=left;verticalAlign=top;spacingLeft=4;spacingRight=4;overflow=hidden;rotatable=0;points=[[0,0.5],[1,0.5]];portConstraint=eastwest;fontStyle=5" parent="Qb3wGNk62sx9fdYkHj4Q-19" vertex="1">
                    <mxGeometry y="26" width="210" height="26" as="geometry"/>
                </mxCell>
                <mxCell id="Qb3wGNk62sx9fdYkHj4Q-21" value="Purchase date" style="text;align=left;verticalAlign=top;spacingLeft=4;spacingRight=4;overflow=hidden;rotatable=0;points=[[0,0.5],[1,0.5]];portConstraint=eastwest;rounded=0;shadow=0;html=0;" parent="Qb3wGNk62sx9fdYkHj4Q-19" vertex="1">
                    <mxGeometry y="52" width="210" height="26" as="geometry"/>
                </mxCell>
                <mxCell id="Qb3wGNk62sx9fdYkHj4Q-22" value="Invoicenumber" style="text;align=left;verticalAlign=top;spacingLeft=4;spacingRight=4;overflow=hidden;rotatable=0;points=[[0,0.5],[1,0.5]];portConstraint=eastwest;rounded=0;shadow=0;html=0;" parent="Qb3wGNk62sx9fdYkHj4Q-19" vertex="1">
                    <mxGeometry y="78" width="210" height="26" as="geometry"/>
                </mxCell>
                <mxCell id="Qb3wGNk62sx9fdYkHj4Q-23" value="Merchant" style="text;align=left;verticalAlign=top;spacingLeft=4;spacingRight=4;overflow=hidden;rotatable=0;points=[[0,0.5],[1,0.5]];portConstraint=eastwest;rounded=0;shadow=0;html=0;" parent="Qb3wGNk62sx9fdYkHj4Q-19" vertex="1">
                    <mxGeometry y="104" width="210" height="26" as="geometry"/>
                </mxCell>
                <mxCell id="Qb3wGNk62sx9fdYkHj4Q-25" value="Purchase price" style="text;align=left;verticalAlign=top;spacingLeft=4;spacingRight=4;overflow=hidden;rotatable=0;points=[[0,0.5],[1,0.5]];portConstraint=eastwest;rounded=0;shadow=0;html=0;" parent="Qb3wGNk62sx9fdYkHj4Q-19" vertex="1">
                    <mxGeometry y="130" width="210" height="26" as="geometry"/>
                </mxCell>
                <mxCell id="Qb3wGNk62sx9fdYkHj4Q-26" value="Suggested retail price" style="text;align=left;verticalAlign=top;spacingLeft=4;spacingRight=4;overflow=hidden;rotatable=0;points=[[0,0.5],[1,0.5]];portConstraint=eastwest;rounded=0;shadow=0;html=0;" parent="Qb3wGNk62sx9fdYkHj4Q-19" vertex="1">
                    <mxGeometry y="156" width="210" height="26" as="geometry"/>
                </mxCell>
                <mxCell id="Qb3wGNk62sx9fdYkHj4Q-29" value="PropertyType" style="swimlane;fontStyle=2;align=center;verticalAlign=top;childLayout=stackLayout;horizontal=1;startSize=26;horizontalStack=0;resizeParent=1;resizeLast=0;collapsible=1;marginBottom=0;rounded=0;shadow=0;strokeWidth=1;" parent="1" vertex="1">
                    <mxGeometry x="620" y="803" width="160" height="160" as="geometry">
                        <mxRectangle x="230" y="140" width="160" height="26" as="alternateBounds"/>
                    </mxGeometry>
                </mxCell>
                <mxCell id="Qb3wGNk62sx9fdYkHj4Q-30" value="PropertyTypeID" style="text;align=left;verticalAlign=top;spacingLeft=4;spacingRight=4;overflow=hidden;rotatable=0;points=[[0,0.5],[1,0.5]];portConstraint=eastwest;fontStyle=5" parent="Qb3wGNk62sx9fdYkHj4Q-29" vertex="1">
                    <mxGeometry y="26" width="160" height="22" as="geometry"/>
                </mxCell>
                <mxCell id="Qb3wGNk62sx9fdYkHj4Q-31" value="Name" style="text;align=left;verticalAlign=top;spacingLeft=4;spacingRight=4;overflow=hidden;rotatable=0;points=[[0,0.5],[1,0.5]];portConstraint=eastwest;rounded=0;shadow=0;html=0;" parent="Qb3wGNk62sx9fdYkHj4Q-29" vertex="1">
                    <mxGeometry y="48" width="160" height="28" as="geometry"/>
                </mxCell>
                <mxCell id="Qb3wGNk62sx9fdYkHj4Q-32" value="Description" style="text;align=left;verticalAlign=top;spacingLeft=4;spacingRight=4;overflow=hidden;rotatable=0;points=[[0,0.5],[1,0.5]];portConstraint=eastwest;rounded=0;shadow=0;html=0;" parent="Qb3wGNk62sx9fdYkHj4Q-29" vertex="1">
                    <mxGeometry y="76" width="160" height="28" as="geometry"/>
                </mxCell>
                <mxCell id="Qb3wGNk62sx9fdYkHj4Q-33" value="Value" style="text;align=left;verticalAlign=top;spacingLeft=4;spacingRight=4;overflow=hidden;rotatable=0;points=[[0,0.5],[1,0.5]];portConstraint=eastwest;rounded=0;shadow=0;html=0;" parent="Qb3wGNk62sx9fdYkHj4Q-29" vertex="1">
                    <mxGeometry y="104" width="160" height="28" as="geometry"/>
                </mxCell>
                <mxCell id="Qb3wGNk62sx9fdYkHj4Q-34" value="Unit" style="text;align=left;verticalAlign=top;spacingLeft=4;spacingRight=4;overflow=hidden;rotatable=0;points=[[0,0.5],[1,0.5]];portConstraint=eastwest;rounded=0;shadow=0;html=0;" parent="Qb3wGNk62sx9fdYkHj4Q-29" vertex="1">
                    <mxGeometry y="132" width="160" height="28" as="geometry"/>
                </mxCell>
                <mxCell id="Qb3wGNk62sx9fdYkHj4Q-35" value="Material-Property-mapping" style="swimlane;fontStyle=2;align=center;verticalAlign=top;childLayout=stackLayout;horizontal=1;startSize=26;horizontalStack=0;resizeParent=1;resizeLast=0;collapsible=1;marginBottom=0;rounded=0;shadow=0;strokeWidth=1;" parent="1" vertex="1">
                    <mxGeometry x="334" y="628" width="160" height="76" as="geometry">
                        <mxRectangle x="230" y="140" width="160" height="26" as="alternateBounds"/>
                    </mxGeometry>
                </mxCell>
                <mxCell id="Qb3wGNk62sx9fdYkHj4Q-36" value="MaterialID" style="text;align=left;verticalAlign=top;spacingLeft=4;spacingRight=4;overflow=hidden;rotatable=0;points=[[0,0.5],[1,0.5]];portConstraint=eastwest;fontStyle=5" parent="Qb3wGNk62sx9fdYkHj4Q-35" vertex="1">
                    <mxGeometry y="26" width="160" height="22" as="geometry"/>
                </mxCell>
                <mxCell id="Qb3wGNk62sx9fdYkHj4Q-37" value="PropertyID" style="text;align=left;verticalAlign=top;spacingLeft=4;spacingRight=4;overflow=hidden;rotatable=0;points=[[0,0.5],[1,0.5]];portConstraint=eastwest;rounded=0;shadow=0;html=0;fontStyle=5" parent="Qb3wGNk62sx9fdYkHj4Q-35" vertex="1">
                    <mxGeometry y="48" width="160" height="28" as="geometry"/>
                </mxCell>
                <mxCell id="Qb3wGNk62sx9fdYkHj4Q-38" style="edgeStyle=orthogonalEdgeStyle;rounded=0;orthogonalLoop=1;jettySize=auto;html=1;entryX=0;entryY=0.5;entryDx=0;entryDy=0;exitX=1;exitY=0.5;exitDx=0;exitDy=0;" parent="1" source="Qb3wGNk62sx9fdYkHj4Q-6" target="Qb3wGNk62sx9fdYkHj4Q-36" edge="1">
                    <mxGeometry relative="1" as="geometry">
                        <Array as="points">
                            <mxPoint x="230" y="77"/>
                            <mxPoint x="281" y="77"/>
                            <mxPoint x="281" y="665"/>
                        </Array>
                        <mxPoint x="256" y="-17" as="sourcePoint"/>
                        <mxPoint x="326" y="564" as="targetPoint"/>
                    </mxGeometry>
                </mxCell>
                <mxCell id="QOAHvC43-Bkom7bqYECk-1" value="SerialNumber" style="swimlane;fontStyle=2;align=center;verticalAlign=top;childLayout=stackLayout;horizontal=1;startSize=26;horizontalStack=0;resizeParent=1;resizeLast=0;collapsible=1;marginBottom=0;rounded=0;shadow=0;strokeWidth=1;" parent="1" vertex="1">
                    <mxGeometry x="334" y="10" width="160" height="164" as="geometry">
                        <mxRectangle x="230" y="140" width="160" height="26" as="alternateBounds"/>
                    </mxGeometry>
                </mxCell>
                <mxCell id="QOAHvC43-Bkom7bqYECk-2" value="SerialNumberID" style="text;align=left;verticalAlign=top;spacingLeft=4;spacingRight=4;overflow=hidden;rotatable=0;points=[[0,0.5],[1,0.5]];portConstraint=eastwest;fontStyle=5" parent="QOAHvC43-Bkom7bqYECk-1" vertex="1">
                    <mxGeometry y="26" width="160" height="22" as="geometry"/>
                </mxCell>
                <mxCell id="WqgTeUS0Pe28H3pROY-g-2" value="Serialnumber" style="text;align=left;verticalAlign=top;spacingLeft=4;spacingRight=4;overflow=hidden;rotatable=0;points=[[0,0.5],[1,0.5]];portConstraint=eastwest;rounded=0;shadow=0;html=0;" parent="QOAHvC43-Bkom7bqYECk-1" vertex="1">
                    <mxGeometry y="48" width="160" height="28" as="geometry"/>
                </mxCell>
                <mxCell id="QOAHvC43-Bkom7bqYECk-3" value="manufacturer" style="text;align=left;verticalAlign=top;spacingLeft=4;spacingRight=4;overflow=hidden;rotatable=0;points=[[0,0.5],[1,0.5]];portConstraint=eastwest;rounded=0;shadow=0;html=0;" parent="QOAHvC43-Bkom7bqYECk-1" vertex="1">
                    <mxGeometry y="76" width="160" height="28" as="geometry"/>
                </mxCell>
                <mxCell id="Qb3wGNk62sx9fdYkHj4Q-24" value="Production date" style="text;align=left;verticalAlign=top;spacingLeft=4;spacingRight=4;overflow=hidden;rotatable=0;points=[[0,0.5],[1,0.5]];portConstraint=eastwest;rounded=0;shadow=0;html=0;" parent="QOAHvC43-Bkom7bqYECk-1" vertex="1">
                    <mxGeometry y="104" width="160" height="26" as="geometry"/>
                </mxCell>
                <mxCell id="QOAHvC43-Bkom7bqYECk-10" value="MaterialID" style="text;align=left;verticalAlign=top;spacingLeft=4;spacingRight=4;overflow=hidden;rotatable=0;points=[[0,0.5],[1,0.5]];portConstraint=eastwest;fontStyle=5" parent="QOAHvC43-Bkom7bqYECk-1" vertex="1">
                    <mxGeometry y="130" width="160" height="34" as="geometry"/>
                </mxCell>
                <mxCell id="QOAHvC43-Bkom7bqYECk-11" style="edgeStyle=orthogonalEdgeStyle;rounded=0;orthogonalLoop=1;jettySize=auto;html=1;fontColor=#0000FF;" parent="1" source="QOAHvC43-Bkom7bqYECk-10" target="Qb3wGNk62sx9fdYkHj4Q-6" edge="1">
                    <mxGeometry relative="1" as="geometry"/>
                </mxCell>
                <mxCell id="WgofeBNioAkmx63_h2Rp-1" value="Material Set" style="swimlane;fontStyle=2;align=center;verticalAlign=top;childLayout=stackLayout;horizontal=1;startSize=26;horizontalStack=0;resizeParent=1;resizeLast=0;collapsible=1;marginBottom=0;rounded=0;shadow=0;strokeWidth=1;" parent="1" vertex="1">
                    <mxGeometry x="620" y="230" width="160" height="80" as="geometry">
                        <mxRectangle x="230" y="140" width="160" height="26" as="alternateBounds"/>
                    </mxGeometry>
                </mxCell>
                <mxCell id="WgofeBNioAkmx63_h2Rp-2" value="MaterialSetID" style="text;align=left;verticalAlign=top;spacingLeft=4;spacingRight=4;overflow=hidden;rotatable=0;points=[[0,0.5],[1,0.5]];portConstraint=eastwest;fontStyle=5" parent="WgofeBNioAkmx63_h2Rp-1" vertex="1">
                    <mxGeometry y="26" width="160" height="22" as="geometry"/>
                </mxCell>
                <mxCell id="WgofeBNioAkmx63_h2Rp-4" value="SetName" style="text;align=left;verticalAlign=top;spacingLeft=4;spacingRight=4;overflow=hidden;rotatable=0;points=[[0,0.5],[1,0.5]];portConstraint=eastwest;rounded=0;shadow=0;html=0;" parent="WgofeBNioAkmx63_h2Rp-1" vertex="1">
                    <mxGeometry y="48" width="160" height="28" as="geometry"/>
                </mxCell>
                <mxCell id="WgofeBNioAkmx63_h2Rp-9" value="Material-Type-Set-Mapping" style="swimlane;fontStyle=2;align=center;verticalAlign=top;childLayout=stackLayout;horizontal=1;startSize=26;horizontalStack=0;resizeParent=1;resizeLast=0;collapsible=1;marginBottom=0;rounded=0;shadow=0;strokeWidth=1;" parent="1" vertex="1">
                    <mxGeometry x="620" y="468" width="170" height="80" as="geometry">
                        <mxRectangle x="230" y="140" width="160" height="26" as="alternateBounds"/>
                    </mxGeometry>
                </mxCell>
                <mxCell id="WgofeBNioAkmx63_h2Rp-10" value="MaterialSetID" style="text;align=left;verticalAlign=top;spacingLeft=4;spacingRight=4;overflow=hidden;rotatable=0;points=[[0,0.5],[1,0.5]];portConstraint=eastwest;fontStyle=5" parent="WgofeBNioAkmx63_h2Rp-9" vertex="1">
                    <mxGeometry y="26" width="170" height="22" as="geometry"/>
                </mxCell>
                <mxCell id="WgofeBNioAkmx63_h2Rp-11" value="MaterialTypeID" style="text;align=left;verticalAlign=top;spacingLeft=4;spacingRight=4;overflow=hidden;rotatable=0;points=[[0,0.5],[1,0.5]];portConstraint=eastwest;rounded=0;shadow=0;html=0;fontStyle=5" parent="WgofeBNioAkmx63_h2Rp-9" vertex="1">
                    <mxGeometry y="48" width="170" height="28" as="geometry"/>
                </mxCell>
                <mxCell id="WgofeBNioAkmx63_h2Rp-12" style="edgeStyle=none;html=1;exitX=0;exitY=0.5;exitDx=0;exitDy=0;entryX=1;entryY=0.5;entryDx=0;entryDy=0;" parent="1" source="WgofeBNioAkmx63_h2Rp-11" target="Qb3wGNk62sx9fdYkHj4Q-2" edge="1">
                    <mxGeometry relative="1" as="geometry"/>
                </mxCell>
                <mxCell id="WgofeBNioAkmx63_h2Rp-13" style="edgeStyle=none;html=1;exitX=0;exitY=0.5;exitDx=0;exitDy=0;entryX=0;entryY=0.5;entryDx=0;entryDy=0;" parent="1" source="WgofeBNioAkmx63_h2Rp-10" target="WgofeBNioAkmx63_h2Rp-2" edge="1">
                    <mxGeometry relative="1" as="geometry">
                        <Array as="points">
                            <mxPoint x="580" y="505"/>
                            <mxPoint x="580" y="267"/>
                        </Array>
                    </mxGeometry>
                </mxCell>
                <mxCell id="WgofeBNioAkmx63_h2Rp-15" style="edgeStyle=none;html=1;exitX=0;exitY=0.5;exitDx=0;exitDy=0;entryX=1;entryY=0.5;entryDx=0;entryDy=0;" parent="1" source="Qb3wGNk62sx9fdYkHj4Q-2" target="WgofeBNioAkmx63_h2Rp-14" edge="1">
                    <mxGeometry relative="1" as="geometry">
                        <Array as="points">
                            <mxPoint x="260" y="530"/>
                            <mxPoint x="260" y="105"/>
                        </Array>
                    </mxGeometry>
                </mxCell>
                <mxCell id="TGt6erNaDOwpADeeB8BF-2" style="edgeStyle=none;html=1;exitX=0;exitY=0.5;exitDx=0;exitDy=0;entryX=1;entryY=0.5;entryDx=0;entryDy=0;" parent="1" source="Qb3wGNk62sx9fdYkHj4Q-20" target="TGt6erNaDOwpADeeB8BF-1" edge="1">
                    <mxGeometry relative="1" as="geometry">
                        <Array as="points">
                            <mxPoint x="290" y="239"/>
                            <mxPoint x="290" y="131"/>
                        </Array>
                    </mxGeometry>
                </mxCell>
                <mxCell id="NcE37d9n81_v_LJHgIM3-2" value="Material-Type-Property-Type-Mapping" style="swimlane;fontStyle=2;align=center;verticalAlign=top;childLayout=stackLayout;horizontal=1;startSize=26;horizontalStack=0;resizeParent=1;resizeLast=0;collapsible=1;marginBottom=0;rounded=0;shadow=0;strokeWidth=1;" vertex="1" parent="1">
                    <mxGeometry x="590" y="600" width="220" height="80" as="geometry">
                        <mxRectangle x="230" y="140" width="160" height="26" as="alternateBounds"/>
                    </mxGeometry>
                </mxCell>
                <mxCell id="NcE37d9n81_v_LJHgIM3-3" value="MaterialTypeID" style="text;align=left;verticalAlign=top;spacingLeft=4;spacingRight=4;overflow=hidden;rotatable=0;points=[[0,0.5],[1,0.5]];portConstraint=eastwest;fontStyle=5" vertex="1" parent="NcE37d9n81_v_LJHgIM3-2">
                    <mxGeometry y="26" width="220" height="22" as="geometry"/>
                </mxCell>
                <mxCell id="NcE37d9n81_v_LJHgIM3-4" value="PropertyTypeID" style="text;align=left;verticalAlign=top;spacingLeft=4;spacingRight=4;overflow=hidden;rotatable=0;points=[[0,0.5],[1,0.5]];portConstraint=eastwest;rounded=0;shadow=0;html=0;fontStyle=5" vertex="1" parent="NcE37d9n81_v_LJHgIM3-2">
                    <mxGeometry y="48" width="220" height="28" as="geometry"/>
                </mxCell>
                <mxCell id="NcE37d9n81_v_LJHgIM3-5" style="edgeStyle=none;html=1;exitX=0;exitY=0.5;exitDx=0;exitDy=0;entryX=0;entryY=0.5;entryDx=0;entryDy=0;" edge="1" parent="1" source="NcE37d9n81_v_LJHgIM3-4" target="Qb3wGNk62sx9fdYkHj4Q-30">
                    <mxGeometry relative="1" as="geometry">
                        <Array as="points">
                            <mxPoint x="550" y="662"/>
                            <mxPoint x="550" y="770"/>
                        </Array>
                    </mxGeometry>
                </mxCell>
                <mxCell id="NcE37d9n81_v_LJHgIM3-6" style="edgeStyle=none;html=1;exitX=0;exitY=0.5;exitDx=0;exitDy=0;entryX=1;entryY=0.5;entryDx=0;entryDy=0;" edge="1" parent="1" source="NcE37d9n81_v_LJHgIM3-3" target="Qb3wGNk62sx9fdYkHj4Q-2">
                    <mxGeometry relative="1" as="geometry"/>
                </mxCell>
                <mxCell id="NcE37d9n81_v_LJHgIM3-7" value="PropertyType" style="swimlane;fontStyle=2;align=center;verticalAlign=top;childLayout=stackLayout;horizontal=1;startSize=26;horizontalStack=0;resizeParent=1;resizeLast=0;collapsible=1;marginBottom=0;rounded=0;shadow=0;strokeWidth=1;" vertex="1" parent="1">
                    <mxGeometry x="334" y="780" width="160" height="98" as="geometry">
                        <mxRectangle x="230" y="140" width="160" height="26" as="alternateBounds"/>
                    </mxGeometry>
                </mxCell>
                <mxCell id="NcE37d9n81_v_LJHgIM3-8" value="PropertyID" style="text;align=left;verticalAlign=top;spacingLeft=4;spacingRight=4;overflow=hidden;rotatable=0;points=[[0,0.5],[1,0.5]];portConstraint=eastwest;fontStyle=5" vertex="1" parent="NcE37d9n81_v_LJHgIM3-7">
                    <mxGeometry y="26" width="160" height="22" as="geometry"/>
                </mxCell>
                <mxCell id="NcE37d9n81_v_LJHgIM3-15" value="PropertyTypeID" style="text;align=left;verticalAlign=top;spacingLeft=4;spacingRight=4;overflow=hidden;rotatable=0;points=[[0,0.5],[1,0.5]];portConstraint=eastwest;fontStyle=5" vertex="1" parent="NcE37d9n81_v_LJHgIM3-7">
                    <mxGeometry y="48" width="160" height="22" as="geometry"/>
                </mxCell>
                <mxCell id="NcE37d9n81_v_LJHgIM3-11" value="Value" style="text;align=left;verticalAlign=top;spacingLeft=4;spacingRight=4;overflow=hidden;rotatable=0;points=[[0,0.5],[1,0.5]];portConstraint=eastwest;rounded=0;shadow=0;html=0;" vertex="1" parent="NcE37d9n81_v_LJHgIM3-7">
                    <mxGeometry y="70" width="160" height="28" as="geometry"/>
                </mxCell>
                <mxCell id="NcE37d9n81_v_LJHgIM3-13" style="edgeStyle=none;html=1;exitX=0;exitY=0.5;exitDx=0;exitDy=0;entryX=0;entryY=0.5;entryDx=0;entryDy=0;" edge="1" parent="1" source="NcE37d9n81_v_LJHgIM3-8" target="Qb3wGNk62sx9fdYkHj4Q-37">
                    <mxGeometry relative="1" as="geometry">
                        <Array as="points">
                            <mxPoint x="290" y="817"/>
                            <mxPoint x="290" y="690"/>
                        </Array>
                    </mxGeometry>
                </mxCell>
                <mxCell id="NcE37d9n81_v_LJHgIM3-16" style="edgeStyle=none;html=1;exitX=1;exitY=0.5;exitDx=0;exitDy=0;entryX=0;entryY=0.5;entryDx=0;entryDy=0;" edge="1" parent="1" source="NcE37d9n81_v_LJHgIM3-15" target="Qb3wGNk62sx9fdYkHj4Q-30">
                    <mxGeometry relative="1" as="geometry"/>
                </mxCell>
            </root>
        </mxGraphModel>
    </diagram>
    <diagram id="8ZyGIZshFHw5DvEoOUpO" name="User Modul">
        <mxGraphModel dx="708" dy="-736" grid="1" gridSize="10" guides="1" tooltips="1" connect="1" arrows="1" fold="1" page="1" pageScale="1" pageWidth="827" pageHeight="1169" math="0" shadow="0">
            <root>
                <mxCell id="0"/>
                <mxCell id="1" parent="0"/>
                <mxCell id="n4Spf2NkNqhavKn9_8f8-2" value="User" style="swimlane;fontStyle=2;align=center;verticalAlign=top;childLayout=stackLayout;horizontal=1;startSize=26;horizontalStack=0;resizeParent=1;resizeLast=0;collapsible=1;marginBottom=0;rounded=0;shadow=0;strokeWidth=1;" parent="1" vertex="1">
                    <mxGeometry x="100" y="1250" width="160" height="240" as="geometry">
                        <mxRectangle x="230" y="140" width="160" height="26" as="alternateBounds"/>
                    </mxGeometry>
                </mxCell>
                <mxCell id="n4Spf2NkNqhavKn9_8f8-3" value="UserID" style="text;align=left;verticalAlign=top;spacingLeft=4;spacingRight=4;overflow=hidden;rotatable=0;points=[[0,0.5],[1,0.5]];portConstraint=eastwest;fontStyle=5" parent="n4Spf2NkNqhavKn9_8f8-2" vertex="1">
                    <mxGeometry y="26" width="160" height="26" as="geometry"/>
                </mxCell>
                <mxCell id="n4Spf2NkNqhavKn9_8f8-4" value="FirstName" style="text;align=left;verticalAlign=top;spacingLeft=4;spacingRight=4;overflow=hidden;rotatable=0;points=[[0,0.5],[1,0.5]];portConstraint=eastwest;rounded=0;shadow=0;html=0;" parent="n4Spf2NkNqhavKn9_8f8-2" vertex="1">
                    <mxGeometry y="52" width="160" height="28" as="geometry"/>
                </mxCell>
                <mxCell id="n4Spf2NkNqhavKn9_8f8-5" value="LastName" style="text;align=left;verticalAlign=top;spacingLeft=4;spacingRight=4;overflow=hidden;rotatable=0;points=[[0,0.5],[1,0.5]];portConstraint=eastwest;rounded=0;shadow=0;html=0;" parent="n4Spf2NkNqhavKn9_8f8-2" vertex="1">
                    <mxGeometry y="80" width="160" height="28" as="geometry"/>
                </mxCell>
                <mxCell id="n4Spf2NkNqhavKn9_8f8-6" value="Email" style="text;align=left;verticalAlign=top;spacingLeft=4;spacingRight=4;overflow=hidden;rotatable=0;points=[[0,0.5],[1,0.5]];portConstraint=eastwest;rounded=0;shadow=0;html=0;" parent="n4Spf2NkNqhavKn9_8f8-2" vertex="1">
                    <mxGeometry y="108" width="160" height="26" as="geometry"/>
                </mxCell>
                <mxCell id="n4Spf2NkNqhavKn9_8f8-7" value="Phone" style="text;align=left;verticalAlign=top;spacingLeft=4;spacingRight=4;overflow=hidden;rotatable=0;points=[[0,0.5],[1,0.5]];portConstraint=eastwest;rounded=0;shadow=0;html=0;" parent="n4Spf2NkNqhavKn9_8f8-2" vertex="1">
                    <mxGeometry y="134" width="160" height="26" as="geometry"/>
                </mxCell>
                <mxCell id="n4Spf2NkNqhavKn9_8f8-8" value="Category" style="text;align=left;verticalAlign=top;spacingLeft=4;spacingRight=4;overflow=hidden;rotatable=0;points=[[0,0.5],[1,0.5]];portConstraint=eastwest;rounded=0;shadow=0;html=0;" parent="n4Spf2NkNqhavKn9_8f8-2" vertex="1">
                    <mxGeometry y="160" width="160" height="26" as="geometry"/>
                </mxCell>
                <mxCell id="n4Spf2NkNqhavKn9_8f8-9" value="Address" style="text;align=left;verticalAlign=top;spacingLeft=4;spacingRight=4;overflow=hidden;rotatable=0;points=[[0,0.5],[1,0.5]];portConstraint=eastwest;rounded=0;shadow=0;html=0;" parent="n4Spf2NkNqhavKn9_8f8-2" vertex="1">
                    <mxGeometry y="186" width="160" height="26" as="geometry"/>
                </mxCell>
                <mxCell id="n4Spf2NkNqhavKn9_8f8-10" value="MembershipNumber" style="text;align=left;verticalAlign=top;spacingLeft=4;spacingRight=4;overflow=hidden;rotatable=0;points=[[0,0.5],[1,0.5]];portConstraint=eastwest;rounded=0;shadow=0;html=0;" parent="n4Spf2NkNqhavKn9_8f8-2" vertex="1">
                    <mxGeometry y="212" width="160" height="28" as="geometry"/>
                </mxCell>
                <mxCell id="n4Spf2NkNqhavKn9_8f8-11" value="Role" style="swimlane;fontStyle=2;align=center;verticalAlign=top;childLayout=stackLayout;horizontal=1;startSize=26;horizontalStack=0;resizeParent=1;resizeLast=0;collapsible=1;marginBottom=0;rounded=0;shadow=0;strokeWidth=1;" parent="1" vertex="1">
                    <mxGeometry x="504" y="1442" width="160" height="110" as="geometry">
                        <mxRectangle x="230" y="140" width="160" height="26" as="alternateBounds"/>
                    </mxGeometry>
                </mxCell>
                <mxCell id="n4Spf2NkNqhavKn9_8f8-12" value="RoleID" style="text;align=left;verticalAlign=top;spacingLeft=4;spacingRight=4;overflow=hidden;rotatable=0;points=[[0,0.5],[1,0.5]];portConstraint=eastwest;fontStyle=5" parent="n4Spf2NkNqhavKn9_8f8-11" vertex="1">
                    <mxGeometry y="26" width="160" height="22" as="geometry"/>
                </mxCell>
                <mxCell id="n4Spf2NkNqhavKn9_8f8-13" value="Name" style="text;align=left;verticalAlign=top;spacingLeft=4;spacingRight=4;overflow=hidden;rotatable=0;points=[[0,0.5],[1,0.5]];portConstraint=eastwest;rounded=0;shadow=0;html=0;" parent="n4Spf2NkNqhavKn9_8f8-11" vertex="1">
                    <mxGeometry y="48" width="160" height="28" as="geometry"/>
                </mxCell>
                <mxCell id="n4Spf2NkNqhavKn9_8f8-14" value="Description" style="text;align=left;verticalAlign=top;spacingLeft=4;spacingRight=4;overflow=hidden;rotatable=0;points=[[0,0.5],[1,0.5]];portConstraint=eastwest;rounded=0;shadow=0;html=0;" parent="n4Spf2NkNqhavKn9_8f8-11" vertex="1">
                    <mxGeometry y="76" width="160" height="28" as="geometry"/>
                </mxCell>
                <mxCell id="n4Spf2NkNqhavKn9_8f8-15" value="Permissions" style="swimlane;fontStyle=2;align=center;verticalAlign=top;childLayout=stackLayout;horizontal=1;startSize=26;horizontalStack=0;resizeParent=1;resizeLast=0;collapsible=1;marginBottom=0;rounded=0;shadow=0;strokeWidth=1;" parent="1" vertex="1">
                    <mxGeometry x="504" y="1605" width="160" height="110" as="geometry">
                        <mxRectangle x="230" y="140" width="160" height="26" as="alternateBounds"/>
                    </mxGeometry>
                </mxCell>
                <mxCell id="n4Spf2NkNqhavKn9_8f8-16" value="PermissionID" style="text;align=left;verticalAlign=top;spacingLeft=4;spacingRight=4;overflow=hidden;rotatable=0;points=[[0,0.5],[1,0.5]];portConstraint=eastwest;fontStyle=5" parent="n4Spf2NkNqhavKn9_8f8-15" vertex="1">
                    <mxGeometry y="26" width="160" height="22" as="geometry"/>
                </mxCell>
                <mxCell id="n4Spf2NkNqhavKn9_8f8-17" value="Name" style="text;align=left;verticalAlign=top;spacingLeft=4;spacingRight=4;overflow=hidden;rotatable=0;points=[[0,0.5],[1,0.5]];portConstraint=eastwest;rounded=0;shadow=0;html=0;" parent="n4Spf2NkNqhavKn9_8f8-15" vertex="1">
                    <mxGeometry y="48" width="160" height="28" as="geometry"/>
                </mxCell>
                <mxCell id="n4Spf2NkNqhavKn9_8f8-18" value="Description" style="text;align=left;verticalAlign=top;spacingLeft=4;spacingRight=4;overflow=hidden;rotatable=0;points=[[0,0.5],[1,0.5]];portConstraint=eastwest;rounded=0;shadow=0;html=0;" parent="n4Spf2NkNqhavKn9_8f8-15" vertex="1">
                    <mxGeometry y="76" width="160" height="28" as="geometry"/>
                </mxCell>
                <mxCell id="n4Spf2NkNqhavKn9_8f8-19" value="Role-Permissions-Mapping" style="swimlane;fontStyle=2;align=center;verticalAlign=top;childLayout=stackLayout;horizontal=1;startSize=26;horizontalStack=0;resizeParent=1;resizeLast=0;collapsible=1;marginBottom=0;rounded=0;shadow=0;strokeWidth=1;" parent="1" vertex="1" collapsed="1">
                    <mxGeometry x="240" y="1578" width="160" height="26" as="geometry">
                        <mxRectangle x="160" y="777" width="160" height="76" as="alternateBounds"/>
                    </mxGeometry>
                </mxCell>
                <mxCell id="n4Spf2NkNqhavKn9_8f8-20" value="RoleID" style="text;align=left;verticalAlign=top;spacingLeft=4;spacingRight=4;overflow=hidden;rotatable=0;points=[[0,0.5],[1,0.5]];portConstraint=eastwest;rounded=0;shadow=0;html=0;fontStyle=1" parent="n4Spf2NkNqhavKn9_8f8-19" vertex="1">
                    <mxGeometry y="26" width="160" height="28" as="geometry"/>
                </mxCell>
                <mxCell id="n4Spf2NkNqhavKn9_8f8-21" value="RightID" style="text;align=left;verticalAlign=top;spacingLeft=4;spacingRight=4;overflow=hidden;rotatable=0;points=[[0,0.5],[1,0.5]];portConstraint=eastwest;fontStyle=1" parent="n4Spf2NkNqhavKn9_8f8-19" vertex="1">
                    <mxGeometry y="54" width="160" height="22" as="geometry"/>
                </mxCell>
                <mxCell id="n4Spf2NkNqhavKn9_8f8-22" value="User-Role-Mapping" style="swimlane;fontStyle=2;align=center;verticalAlign=top;childLayout=stackLayout;horizontal=1;startSize=26;horizontalStack=0;resizeParent=1;resizeLast=0;collapsible=1;marginBottom=0;rounded=0;shadow=0;strokeWidth=1;" parent="1" vertex="1">
                    <mxGeometry x="518" y="1281" width="160" height="85" as="geometry">
                        <mxRectangle x="518" y="1281" width="160" height="26" as="alternateBounds"/>
                    </mxGeometry>
                </mxCell>
                <mxCell id="n4Spf2NkNqhavKn9_8f8-23" value="UserID" style="text;align=left;verticalAlign=top;spacingLeft=4;spacingRight=4;overflow=hidden;rotatable=0;points=[[0,0.5],[1,0.5]];portConstraint=eastwest;fontStyle=1" parent="n4Spf2NkNqhavKn9_8f8-22" vertex="1">
                    <mxGeometry y="26" width="160" height="26" as="geometry"/>
                </mxCell>
                <mxCell id="n4Spf2NkNqhavKn9_8f8-24" value="RoleID" style="text;align=left;verticalAlign=top;spacingLeft=4;spacingRight=4;overflow=hidden;rotatable=0;points=[[0,0.5],[1,0.5]];portConstraint=eastwest;rounded=0;shadow=0;html=0;fontStyle=1" parent="n4Spf2NkNqhavKn9_8f8-22" vertex="1">
                    <mxGeometry y="52" width="160" height="28" as="geometry"/>
                </mxCell>
                <mxCell id="n4Spf2NkNqhavKn9_8f8-25" style="edgeStyle=orthogonalEdgeStyle;rounded=0;orthogonalLoop=1;jettySize=auto;html=1;exitX=1;exitY=0.5;exitDx=0;exitDy=0;entryX=0;entryY=0.5;entryDx=0;entryDy=0;" parent="1" source="n4Spf2NkNqhavKn9_8f8-3" target="n4Spf2NkNqhavKn9_8f8-23" edge="1">
                    <mxGeometry relative="1" as="geometry"/>
                </mxCell>
                <mxCell id="n4Spf2NkNqhavKn9_8f8-26" style="edgeStyle=elbowEdgeStyle;html=1;exitX=0;exitY=0.5;exitDx=0;exitDy=0;entryX=0;entryY=0.5;entryDx=0;entryDy=0;" parent="1" source="n4Spf2NkNqhavKn9_8f8-12" target="n4Spf2NkNqhavKn9_8f8-24" edge="1">
                    <mxGeometry relative="1" as="geometry">
                        <Array as="points">
                            <mxPoint x="460" y="1402"/>
                        </Array>
                    </mxGeometry>
                </mxCell>
                <mxCell id="n4Spf2NkNqhavKn9_8f8-27" style="edgeStyle=elbowEdgeStyle;html=1;exitX=0;exitY=0.5;exitDx=0;exitDy=0;entryX=1;entryY=0.5;entryDx=0;entryDy=0;" parent="1" source="n4Spf2NkNqhavKn9_8f8-16" target="n4Spf2NkNqhavKn9_8f8-21" edge="1">
                    <mxGeometry relative="1" as="geometry"/>
                </mxCell>
                <mxCell id="n4Spf2NkNqhavKn9_8f8-28" style="edgeStyle=elbowEdgeStyle;html=1;exitX=0;exitY=0.5;exitDx=0;exitDy=0;entryX=1;entryY=0.5;entryDx=0;entryDy=0;" parent="1" source="n4Spf2NkNqhavKn9_8f8-12" target="n4Spf2NkNqhavKn9_8f8-20" edge="1">
                    <mxGeometry relative="1" as="geometry"/>
                </mxCell>
            </root>
        </mxGraphModel>
    </diagram>
    <diagram id="0V7kDTq8uVF9HZ2RS0wC" name="Inspection Modul">
        <mxGraphModel dx="708" dy="433" grid="1" gridSize="10" guides="1" tooltips="1" connect="1" arrows="1" fold="1" page="1" pageScale="1" pageWidth="827" pageHeight="1169" math="0" shadow="0">
            <root>
                <mxCell id="0"/>
                <mxCell id="1" parent="0"/>
                <mxCell id="2r9zvAeKYjKnt1sD4MrZ-6" value="Inspection" style="swimlane;fontStyle=0;align=center;verticalAlign=top;childLayout=stackLayout;horizontal=1;startSize=26;horizontalStack=0;resizeParent=1;resizeLast=0;collapsible=1;marginBottom=0;rounded=0;shadow=0;strokeWidth=1;" parent="1" vertex="1">
                    <mxGeometry x="100" y="160" width="180" height="180" as="geometry">
                        <mxRectangle x="340" y="380" width="170" height="26" as="alternateBounds"/>
                    </mxGeometry>
                </mxCell>
                <mxCell id="2r9zvAeKYjKnt1sD4MrZ-7" value="InspectionID" style="text;align=left;verticalAlign=top;spacingLeft=4;spacingRight=4;overflow=hidden;rotatable=0;points=[[0,0.5],[1,0.5]];portConstraint=eastwest;fontStyle=5" parent="2r9zvAeKYjKnt1sD4MrZ-6" vertex="1">
                    <mxGeometry y="26" width="180" height="26" as="geometry"/>
                </mxCell>
                <mxCell id="2r9zvAeKYjKnt1sD4MrZ-8" value="InspectorID" style="text;align=left;verticalAlign=top;spacingLeft=4;spacingRight=4;overflow=hidden;rotatable=0;points=[[0,0.5],[1,0.5]];portConstraint=eastwest;fontStyle=1" parent="2r9zvAeKYjKnt1sD4MrZ-6" vertex="1">
                    <mxGeometry y="52" width="180" height="26" as="geometry"/>
                </mxCell>
                <mxCell id="2r9zvAeKYjKnt1sD4MrZ-9" value="Date" style="text;align=left;verticalAlign=top;spacingLeft=4;spacingRight=4;overflow=hidden;rotatable=0;points=[[0,0.5],[1,0.5]];portConstraint=eastwest;" parent="2r9zvAeKYjKnt1sD4MrZ-6" vertex="1">
                    <mxGeometry y="78" width="180" height="26" as="geometry"/>
                </mxCell>
                <mxCell id="2r9zvAeKYjKnt1sD4MrZ-35" value="Type (PSA, Sicht)" style="text;align=left;verticalAlign=top;spacingLeft=4;spacingRight=4;overflow=hidden;rotatable=0;points=[[0,0.5],[1,0.5]];portConstraint=eastwest;" parent="2r9zvAeKYjKnt1sD4MrZ-6" vertex="1">
                    <mxGeometry y="104" width="180" height="26" as="geometry"/>
                </mxCell>
                <mxCell id="2r9zvAeKYjKnt1sD4MrZ-27" value="MaterialID" style="text;align=left;verticalAlign=top;spacingLeft=4;spacingRight=4;overflow=hidden;rotatable=0;points=[[0,0.5],[1,0.5]];portConstraint=eastwest;fontStyle=1" parent="2r9zvAeKYjKnt1sD4MrZ-6" vertex="1">
                    <mxGeometry y="130" width="180" height="26" as="geometry"/>
                </mxCell>
                <mxCell id="2r9zvAeKYjKnt1sD4MrZ-13" value="Material" style="shape=folder;fontStyle=1;spacingTop=10;tabWidth=40;tabHeight=14;tabPosition=left;html=1;" parent="1" vertex="1">
                    <mxGeometry x="350" y="330" width="120" height="60" as="geometry"/>
                </mxCell>
                <mxCell id="2r9zvAeKYjKnt1sD4MrZ-16" value="User" style="shape=folder;fontStyle=1;spacingTop=10;tabWidth=40;tabHeight=14;tabPosition=left;html=1;" parent="1" vertex="1">
                    <mxGeometry x="40" y="360" width="70" height="50" as="geometry"/>
                </mxCell>
                <mxCell id="2r9zvAeKYjKnt1sD4MrZ-18" style="edgeStyle=orthogonalEdgeStyle;rounded=0;orthogonalLoop=1;jettySize=auto;html=1;entryX=0;entryY=0;entryDx=0;entryDy=32;entryPerimeter=0;" parent="1" source="2r9zvAeKYjKnt1sD4MrZ-8" target="2r9zvAeKYjKnt1sD4MrZ-16" edge="1">
                    <mxGeometry relative="1" as="geometry"/>
                </mxCell>
                <mxCell id="2r9zvAeKYjKnt1sD4MrZ-28" style="edgeStyle=orthogonalEdgeStyle;rounded=0;orthogonalLoop=1;jettySize=auto;html=1;entryX=0;entryY=0;entryDx=20;entryDy=0;entryPerimeter=0;fontColor=#0000FF;" parent="1" source="2r9zvAeKYjKnt1sD4MrZ-27" target="2r9zvAeKYjKnt1sD4MrZ-13" edge="1">
                    <mxGeometry relative="1" as="geometry"/>
                </mxCell>
                <mxCell id="2r9zvAeKYjKnt1sD4MrZ-29" value="Comment" style="swimlane;fontStyle=0;align=center;verticalAlign=top;childLayout=stackLayout;horizontal=1;startSize=26;horizontalStack=0;resizeParent=1;resizeLast=0;collapsible=1;marginBottom=0;rounded=0;shadow=0;strokeWidth=1;" parent="1" vertex="1">
                    <mxGeometry x="370" y="78" width="180" height="130" as="geometry">
                        <mxRectangle x="340" y="380" width="170" height="26" as="alternateBounds"/>
                    </mxGeometry>
                </mxCell>
                <mxCell id="2r9zvAeKYjKnt1sD4MrZ-30" value="CommentID" style="text;align=left;verticalAlign=top;spacingLeft=4;spacingRight=4;overflow=hidden;rotatable=0;points=[[0,0.5],[1,0.5]];portConstraint=eastwest;fontStyle=5" parent="2r9zvAeKYjKnt1sD4MrZ-29" vertex="1">
                    <mxGeometry y="26" width="180" height="26" as="geometry"/>
                </mxCell>
                <mxCell id="2r9zvAeKYjKnt1sD4MrZ-31" value="Comment" style="text;align=left;verticalAlign=top;spacingLeft=4;spacingRight=4;overflow=hidden;rotatable=0;points=[[0,0.5],[1,0.5]];portConstraint=eastwest;fontStyle=0" parent="2r9zvAeKYjKnt1sD4MrZ-29" vertex="1">
                    <mxGeometry y="52" width="180" height="26" as="geometry"/>
                </mxCell>
                <mxCell id="2r9zvAeKYjKnt1sD4MrZ-32" value="Photo (nullable)" style="text;align=left;verticalAlign=top;spacingLeft=4;spacingRight=4;overflow=hidden;rotatable=0;points=[[0,0.5],[1,0.5]];portConstraint=eastwest;" parent="2r9zvAeKYjKnt1sD4MrZ-29" vertex="1">
                    <mxGeometry y="78" width="180" height="26" as="geometry"/>
                </mxCell>
                <mxCell id="2r9zvAeKYjKnt1sD4MrZ-33" value="InspectionID" style="text;align=left;verticalAlign=top;spacingLeft=4;spacingRight=4;overflow=hidden;rotatable=0;points=[[0,0.5],[1,0.5]];portConstraint=eastwest;fontStyle=1" parent="2r9zvAeKYjKnt1sD4MrZ-29" vertex="1">
                    <mxGeometry y="104" width="180" height="26" as="geometry"/>
                </mxCell>
                <mxCell id="2r9zvAeKYjKnt1sD4MrZ-34" style="edgeStyle=orthogonalEdgeStyle;rounded=0;orthogonalLoop=1;jettySize=auto;html=1;fontColor=#0000FF;" parent="1" source="2r9zvAeKYjKnt1sD4MrZ-33" target="2r9zvAeKYjKnt1sD4MrZ-7" edge="1">
                    <mxGeometry relative="1" as="geometry"/>
                </mxCell>
                <mxCell id="p6bsixd5Gm-tMMmyY_xU-1" value="Inspection-Type" style="swimlane;fontStyle=2;align=center;verticalAlign=top;childLayout=stackLayout;horizontal=1;startSize=26;horizontalStack=0;resizeParent=1;resizeLast=0;collapsible=1;marginBottom=0;rounded=0;shadow=0;strokeWidth=1;" vertex="1" parent="1">
                    <mxGeometry x="190" y="30" width="160" height="80" as="geometry">
                        <mxRectangle x="230" y="140" width="160" height="26" as="alternateBounds"/>
                    </mxGeometry>
                </mxCell>
                <mxCell id="p6bsixd5Gm-tMMmyY_xU-2" value="InspectionStatusID" style="text;align=left;verticalAlign=top;spacingLeft=4;spacingRight=4;overflow=hidden;rotatable=0;points=[[0,0.5],[1,0.5]];portConstraint=eastwest;fontStyle=5" vertex="1" parent="p6bsixd5Gm-tMMmyY_xU-1">
                    <mxGeometry y="26" width="160" height="26" as="geometry"/>
                </mxCell>
                <mxCell id="p6bsixd5Gm-tMMmyY_xU-3" value="Name (Normal/Psa)" style="text;align=left;verticalAlign=top;spacingLeft=4;spacingRight=4;overflow=hidden;rotatable=0;points=[[0,0.5],[1,0.5]];portConstraint=eastwest;rounded=0;shadow=0;html=0;" vertex="1" parent="p6bsixd5Gm-tMMmyY_xU-1">
                    <mxGeometry y="52" width="160" height="26" as="geometry"/>
                </mxCell>
                <mxCell id="jmv07_FRDRtypHpQfSpR-1" style="edgeStyle=orthogonalEdgeStyle;rounded=0;orthogonalLoop=1;jettySize=auto;html=1;exitX=0.206;exitY=-0.011;exitDx=0;exitDy=0;exitPerimeter=0;entryX=-0.012;entryY=0.175;entryDx=0;entryDy=0;entryPerimeter=0;" edge="1" parent="1" source="2r9zvAeKYjKnt1sD4MrZ-6" target="p6bsixd5Gm-tMMmyY_xU-1">
                    <mxGeometry relative="1" as="geometry">
                        <mxPoint x="80" y="100" as="sourcePoint"/>
                        <mxPoint x="160" y="76" as="targetPoint"/>
                        <Array as="points">
                            <mxPoint x="137" y="50"/>
                            <mxPoint x="160" y="50"/>
                            <mxPoint x="160" y="44"/>
                        </Array>
                    </mxGeometry>
                </mxCell>
            </root>
        </mxGraphModel>
    </diagram>
    <diagram id="JetbHK9Pbl3cSN19gWRw" name="Rental Modul">
        <mxGraphModel dx="-82" dy="456" grid="1" gridSize="10" guides="1" tooltips="1" connect="1" arrows="1" fold="1" page="1" pageScale="1" pageWidth="827" pageHeight="1169" math="0" shadow="0">
            <root>
                <mxCell id="0"/>
                <mxCell id="1" parent="0"/>
                <mxCell id="Xti7gI8F3IvRb6AtyouN-1" value="Rental" style="swimlane;fontStyle=2;align=center;verticalAlign=top;childLayout=stackLayout;horizontal=1;startSize=26;horizontalStack=0;resizeParent=1;resizeLast=0;collapsible=1;marginBottom=0;rounded=0;shadow=0;strokeWidth=1;" parent="1" vertex="1">
                    <mxGeometry x="1030" y="70" width="180" height="368" as="geometry">
                        <mxRectangle x="230" y="140" width="160" height="26" as="alternateBounds"/>
                    </mxGeometry>
                </mxCell>
                <mxCell id="Xti7gI8F3IvRb6AtyouN-2" value="RentalID" style="text;align=left;verticalAlign=top;spacingLeft=4;spacingRight=4;overflow=hidden;rotatable=0;points=[[0,0.5],[1,0.5]];portConstraint=eastwest;fontStyle=5" parent="Xti7gI8F3IvRb6AtyouN-1" vertex="1">
                    <mxGeometry y="26" width="180" height="26" as="geometry"/>
                </mxCell>
                <mxCell id="Xti7gI8F3IvRb6AtyouN-3" value="CustomerID" style="text;align=left;verticalAlign=top;spacingLeft=4;spacingRight=4;overflow=hidden;rotatable=0;points=[[0,0.5],[1,0.5]];portConstraint=eastwest;rounded=0;shadow=0;html=0;fontStyle=1" parent="Xti7gI8F3IvRb6AtyouN-1" vertex="1">
                    <mxGeometry y="52" width="180" height="26" as="geometry"/>
                </mxCell>
                <mxCell id="Xti7gI8F3IvRb6AtyouN-4" value="LenderID" style="text;align=left;verticalAlign=top;spacingLeft=4;spacingRight=4;overflow=hidden;rotatable=0;points=[[0,0.5],[1,0.5]];portConstraint=eastwest;rounded=0;shadow=0;html=0;fontStyle=1" parent="Xti7gI8F3IvRb6AtyouN-1" vertex="1">
                    <mxGeometry y="78" width="180" height="26" as="geometry"/>
                </mxCell>
                <mxCell id="Xti7gI8F3IvRb6AtyouN-6" value="RentalStatusID" style="text;align=left;verticalAlign=top;spacingLeft=4;spacingRight=4;overflow=hidden;rotatable=0;points=[[0,0.5],[1,0.5]];portConstraint=eastwest;rounded=0;shadow=0;html=0;fontStyle=1" parent="Xti7gI8F3IvRb6AtyouN-1" vertex="1">
                    <mxGeometry y="104" width="180" height="26" as="geometry"/>
                </mxCell>
                <mxCell id="Xti7gI8F3IvRb6AtyouN-5" value="Cost" style="text;align=left;verticalAlign=top;spacingLeft=4;spacingRight=4;overflow=hidden;rotatable=0;points=[[0,0.5],[1,0.5]];portConstraint=eastwest;rounded=0;shadow=0;html=0;" parent="Xti7gI8F3IvRb6AtyouN-1" vertex="1">
                    <mxGeometry y="130" width="180" height="26" as="geometry"/>
                </mxCell>
                <mxCell id="-cR4L3lwfM8dGM-srXie-4" value="discount" style="text;align=left;verticalAlign=top;spacingLeft=4;spacingRight=4;overflow=hidden;rotatable=0;points=[[0,0.5],[1,0.5]];portConstraint=eastwest;rounded=0;shadow=0;html=0;" parent="Xti7gI8F3IvRb6AtyouN-1" vertex="1">
                    <mxGeometry y="156" width="180" height="26" as="geometry"/>
                </mxCell>
                <mxCell id="Xti7gI8F3IvRb6AtyouN-11" value="Deposit" style="text;align=left;verticalAlign=top;spacingLeft=4;spacingRight=4;overflow=hidden;rotatable=0;points=[[0,0.5],[1,0.5]];portConstraint=eastwest;rounded=0;shadow=0;html=0;" parent="Xti7gI8F3IvRb6AtyouN-1" vertex="1">
                    <mxGeometry y="182" width="180" height="26" as="geometry"/>
                </mxCell>
                <mxCell id="Xti7gI8F3IvRb6AtyouN-7" value="created_at" style="text;align=left;verticalAlign=top;spacingLeft=4;spacingRight=4;overflow=hidden;rotatable=0;points=[[0,0.5],[1,0.5]];portConstraint=eastwest;rounded=0;shadow=0;html=0;" parent="Xti7gI8F3IvRb6AtyouN-1" vertex="1">
                    <mxGeometry y="208" width="180" height="26" as="geometry"/>
                </mxCell>
                <mxCell id="-cR4L3lwfM8dGM-srXie-1" value="started_date" style="text;align=left;verticalAlign=top;spacingLeft=4;spacingRight=4;overflow=hidden;rotatable=0;points=[[0,0.5],[1,0.5]];portConstraint=eastwest;rounded=0;shadow=0;html=0;" parent="Xti7gI8F3IvRb6AtyouN-1" vertex="1">
                    <mxGeometry y="234" width="180" height="26" as="geometry"/>
                </mxCell>
                <mxCell id="-cR4L3lwfM8dGM-srXie-2" value="end_date" style="text;align=left;verticalAlign=top;spacingLeft=4;spacingRight=4;overflow=hidden;rotatable=0;points=[[0,0.5],[1,0.5]];portConstraint=eastwest;rounded=0;shadow=0;html=0;" parent="Xti7gI8F3IvRb6AtyouN-1" vertex="1">
                    <mxGeometry y="260" width="180" height="26" as="geometry"/>
                </mxCell>
                <mxCell id="Xti7gI8F3IvRb6AtyouN-8" value="usage_start_date" style="text;align=left;verticalAlign=top;spacingLeft=4;spacingRight=4;overflow=hidden;rotatable=0;points=[[0,0.5],[1,0.5]];portConstraint=eastwest;rounded=0;shadow=0;html=0;" parent="Xti7gI8F3IvRb6AtyouN-1" vertex="1">
                    <mxGeometry y="286" width="180" height="26" as="geometry"/>
                </mxCell>
                <mxCell id="-cR4L3lwfM8dGM-srXie-3" value="usage_end_date" style="text;align=left;verticalAlign=top;spacingLeft=4;spacingRight=4;overflow=hidden;rotatable=0;points=[[0,0.5],[1,0.5]];portConstraint=eastwest;rounded=0;shadow=0;html=0;" parent="Xti7gI8F3IvRb6AtyouN-1" vertex="1">
                    <mxGeometry y="312" width="180" height="26" as="geometry"/>
                </mxCell>
                <mxCell id="Xti7gI8F3IvRb6AtyouN-10" value="ReturnToID" style="text;align=left;verticalAlign=top;spacingLeft=4;spacingRight=4;overflow=hidden;rotatable=0;points=[[0,0.5],[1,0.5]];portConstraint=eastwest;rounded=0;shadow=0;html=0;fontStyle=1" parent="Xti7gI8F3IvRb6AtyouN-1" vertex="1">
                    <mxGeometry y="338" width="180" height="30" as="geometry"/>
                </mxCell>
                <mxCell id="Xti7gI8F3IvRb6AtyouN-12" value="Rental-Status" style="swimlane;fontStyle=2;align=center;verticalAlign=top;childLayout=stackLayout;horizontal=1;startSize=26;horizontalStack=0;resizeParent=1;resizeLast=0;collapsible=1;marginBottom=0;rounded=0;shadow=0;strokeWidth=1;" parent="1" vertex="1">
                    <mxGeometry x="1330" y="190" width="250" height="80" as="geometry">
                        <mxRectangle x="230" y="140" width="160" height="26" as="alternateBounds"/>
                    </mxGeometry>
                </mxCell>
                <mxCell id="Xti7gI8F3IvRb6AtyouN-13" value="RentalStatusID" style="text;align=left;verticalAlign=top;spacingLeft=4;spacingRight=4;overflow=hidden;rotatable=0;points=[[0,0.5],[1,0.5]];portConstraint=eastwest;fontStyle=5" parent="Xti7gI8F3IvRb6AtyouN-12" vertex="1">
                    <mxGeometry y="26" width="250" height="26" as="geometry"/>
                </mxCell>
                <mxCell id="Xti7gI8F3IvRb6AtyouN-14" value="Name(Lent/Available/Unavailable/Returned)" style="text;align=left;verticalAlign=top;spacingLeft=4;spacingRight=4;overflow=hidden;rotatable=0;points=[[0,0.5],[1,0.5]];portConstraint=eastwest;rounded=0;shadow=0;html=0;" parent="Xti7gI8F3IvRb6AtyouN-12" vertex="1">
                    <mxGeometry y="52" width="250" height="26" as="geometry"/>
                </mxCell>
                <mxCell id="njQYaBhdQwIoncDpJgxS-1" value="User" style="shape=folder;fontStyle=1;spacingTop=10;tabWidth=40;tabHeight=14;tabPosition=left;html=1;strokeColor=#000000;fontColor=#000000;" parent="1" vertex="1">
                    <mxGeometry x="840" y="160" width="70" height="50" as="geometry"/>
                </mxCell>
                <mxCell id="njQYaBhdQwIoncDpJgxS-5" style="edgeStyle=orthogonalEdgeStyle;rounded=0;orthogonalLoop=1;jettySize=auto;html=1;entryX=0.495;entryY=0.02;entryDx=0;entryDy=0;entryPerimeter=0;fontColor=#000000;" parent="1" source="Xti7gI8F3IvRb6AtyouN-4" target="njQYaBhdQwIoncDpJgxS-1" edge="1">
                    <mxGeometry relative="1" as="geometry">
                        <Array as="points">
                            <mxPoint x="970" y="161"/>
                            <mxPoint x="970" y="150"/>
                            <mxPoint x="875" y="150"/>
                        </Array>
                    </mxGeometry>
                </mxCell>
                <mxCell id="njQYaBhdQwIoncDpJgxS-7" style="edgeStyle=orthogonalEdgeStyle;rounded=0;orthogonalLoop=1;jettySize=auto;html=1;exitX=1;exitY=0.5;exitDx=0;exitDy=0;entryX=0;entryY=0.5;entryDx=0;entryDy=0;fontColor=#000000;" parent="1" source="Xti7gI8F3IvRb6AtyouN-6" target="Xti7gI8F3IvRb6AtyouN-13" edge="1">
                    <mxGeometry relative="1" as="geometry"/>
                </mxCell>
                <mxCell id="njQYaBhdQwIoncDpJgxS-8" style="edgeStyle=orthogonalEdgeStyle;rounded=0;orthogonalLoop=1;jettySize=auto;html=1;entryX=0;entryY=0;entryDx=55;entryDy=14;entryPerimeter=0;fontColor=#000000;" parent="1" source="Xti7gI8F3IvRb6AtyouN-3" target="njQYaBhdQwIoncDpJgxS-1" edge="1">
                    <mxGeometry relative="1" as="geometry"/>
                </mxCell>
                <mxCell id="njQYaBhdQwIoncDpJgxS-9" style="edgeStyle=orthogonalEdgeStyle;rounded=0;orthogonalLoop=1;jettySize=auto;html=1;fontColor=#000000;exitX=0;exitY=0.5;exitDx=0;exitDy=0;" parent="1" source="Xti7gI8F3IvRb6AtyouN-10" target="njQYaBhdQwIoncDpJgxS-1" edge="1">
                    <mxGeometry relative="1" as="geometry"/>
                </mxCell>
                <mxCell id="njQYaBhdQwIoncDpJgxS-10" value="Material" style="shape=folder;fontStyle=1;spacingTop=10;tabWidth=40;tabHeight=14;tabPosition=left;html=1;strokeColor=#000000;fontColor=#000000;" parent="1" vertex="1">
                    <mxGeometry x="1480" y="550" width="70" height="50" as="geometry"/>
                </mxCell>
                <mxCell id="njQYaBhdQwIoncDpJgxS-11" value="Rental-Material-Mapping" style="swimlane;fontStyle=2;align=center;verticalAlign=top;childLayout=stackLayout;horizontal=1;startSize=26;horizontalStack=0;resizeParent=1;resizeLast=0;collapsible=1;marginBottom=0;rounded=0;shadow=0;strokeWidth=1;" parent="1" vertex="1">
                    <mxGeometry x="1270" y="420" width="160" height="80" as="geometry">
                        <mxRectangle x="230" y="140" width="160" height="26" as="alternateBounds"/>
                    </mxGeometry>
                </mxCell>
                <mxCell id="njQYaBhdQwIoncDpJgxS-12" value="RentalID" style="text;align=left;verticalAlign=top;spacingLeft=4;spacingRight=4;overflow=hidden;rotatable=0;points=[[0,0.5],[1,0.5]];portConstraint=eastwest;fontStyle=5" parent="njQYaBhdQwIoncDpJgxS-11" vertex="1">
                    <mxGeometry y="26" width="160" height="26" as="geometry"/>
                </mxCell>
                <mxCell id="njQYaBhdQwIoncDpJgxS-13" value="MaterialID" style="text;align=left;verticalAlign=top;spacingLeft=4;spacingRight=4;overflow=hidden;rotatable=0;points=[[0,0.5],[1,0.5]];portConstraint=eastwest;rounded=0;shadow=0;html=0;fontStyle=5" parent="njQYaBhdQwIoncDpJgxS-11" vertex="1">
                    <mxGeometry y="52" width="160" height="26" as="geometry"/>
                </mxCell>
                <mxCell id="njQYaBhdQwIoncDpJgxS-14" style="edgeStyle=orthogonalEdgeStyle;rounded=0;orthogonalLoop=1;jettySize=auto;html=1;exitX=0;exitY=0.5;exitDx=0;exitDy=0;entryX=1;entryY=0.5;entryDx=0;entryDy=0;fontColor=#000000;" parent="1" source="njQYaBhdQwIoncDpJgxS-12" target="Xti7gI8F3IvRb6AtyouN-2" edge="1">
                    <mxGeometry relative="1" as="geometry"/>
                </mxCell>
                <mxCell id="njQYaBhdQwIoncDpJgxS-15" style="edgeStyle=orthogonalEdgeStyle;rounded=0;orthogonalLoop=1;jettySize=auto;html=1;entryX=0;entryY=0;entryDx=20;entryDy=0;entryPerimeter=0;fontColor=#000000;" parent="1" source="njQYaBhdQwIoncDpJgxS-13" target="njQYaBhdQwIoncDpJgxS-10" edge="1">
                    <mxGeometry relative="1" as="geometry"/>
                </mxCell>
                <mxCell id="-AHUI_Gvh2Qt5h-M3N6C-1" value="positionen hinzufügen (zb. rabatt)" style="shape=callout;whiteSpace=wrap;html=1;perimeter=calloutPerimeter;position2=0;" parent="1" vertex="1">
                    <mxGeometry x="1241" y="10" width="150" height="80" as="geometry"/>
                </mxCell>
            </root>
        </mxGraphModel>
    </diagram>
    <diagram id="C5RBs43oDa-KdzZeNtuy" name="OLD_Monolith">
        <mxGraphModel dx="2941" dy="787" grid="1" gridSize="10" guides="1" tooltips="1" connect="1" arrows="1" fold="1" page="1" pageScale="1" pageWidth="1654" pageHeight="1169" math="0" shadow="0">
            <root>
                <mxCell id="WIyWlLk6GJQsqaUBKTNV-0"/>
                <mxCell id="WIyWlLk6GJQsqaUBKTNV-1" parent="WIyWlLk6GJQsqaUBKTNV-0"/>
                <mxCell id="1lBgvDwlUtv7d7Zs9Ubd-0" value="Equpment-Type" style="swimlane;fontStyle=2;align=center;verticalAlign=top;childLayout=stackLayout;horizontal=1;startSize=26;horizontalStack=0;resizeParent=1;resizeLast=0;collapsible=1;marginBottom=0;rounded=0;shadow=0;strokeWidth=1;" parent="WIyWlLk6GJQsqaUBKTNV-1" vertex="1">
                    <mxGeometry x="970" y="790" width="160" height="104" as="geometry">
                        <mxRectangle x="230" y="140" width="160" height="26" as="alternateBounds"/>
                    </mxGeometry>
                </mxCell>
                <mxCell id="1lBgvDwlUtv7d7Zs9Ubd-1" value="MaterialID" style="text;align=left;verticalAlign=top;spacingLeft=4;spacingRight=4;overflow=hidden;rotatable=0;points=[[0,0.5],[1,0.5]];portConstraint=eastwest;fontStyle=5" parent="1lBgvDwlUtv7d7Zs9Ubd-0" vertex="1">
                    <mxGeometry y="26" width="160" height="26" as="geometry"/>
                </mxCell>
                <mxCell id="1lBgvDwlUtv7d7Zs9Ubd-2" value="Description" style="text;align=left;verticalAlign=top;spacingLeft=4;spacingRight=4;overflow=hidden;rotatable=0;points=[[0,0.5],[1,0.5]];portConstraint=eastwest;rounded=0;shadow=0;html=0;" parent="1lBgvDwlUtv7d7Zs9Ubd-0" vertex="1">
                    <mxGeometry y="52" width="160" height="26" as="geometry"/>
                </mxCell>
                <mxCell id="5" value="Description" style="text;align=left;verticalAlign=top;spacingLeft=4;spacingRight=4;overflow=hidden;rotatable=0;points=[[0,0.5],[1,0.5]];portConstraint=eastwest;rounded=0;shadow=0;html=0;" parent="1lBgvDwlUtv7d7Zs9Ubd-0" vertex="1">
                    <mxGeometry y="78" width="160" height="26" as="geometry"/>
                </mxCell>
                <mxCell id="1lBgvDwlUtv7d7Zs9Ubd-6" value="Material" style="swimlane;fontStyle=2;align=center;verticalAlign=top;childLayout=stackLayout;horizontal=1;startSize=26;horizontalStack=0;resizeParent=1;resizeLast=0;collapsible=1;marginBottom=0;rounded=0;shadow=0;strokeWidth=1;" parent="WIyWlLk6GJQsqaUBKTNV-1" vertex="1">
                    <mxGeometry x="679" y="417" width="190" height="370" as="geometry">
                        <mxRectangle x="679" y="417" width="160" height="26" as="alternateBounds"/>
                    </mxGeometry>
                </mxCell>
                <mxCell id="1lBgvDwlUtv7d7Zs9Ubd-7" value="MaterialID" style="text;align=left;verticalAlign=top;spacingLeft=4;spacingRight=4;overflow=hidden;rotatable=0;points=[[0,0.5],[1,0.5]];portConstraint=eastwest;fontStyle=5" parent="1lBgvDwlUtv7d7Zs9Ubd-6" vertex="1">
                    <mxGeometry y="26" width="190" height="26" as="geometry"/>
                </mxCell>
                <mxCell id="mmh_hH_gYKxoH7ZBBsEL-30" value="Serialnumber" style="text;align=left;verticalAlign=top;spacingLeft=4;spacingRight=4;overflow=hidden;rotatable=0;points=[[0,0.5],[1,0.5]];portConstraint=eastwest;rounded=0;shadow=0;html=0;" parent="1lBgvDwlUtv7d7Zs9Ubd-6" vertex="1">
                    <mxGeometry y="52" width="190" height="26" as="geometry"/>
                </mxCell>
                <mxCell id="1lBgvDwlUtv7d7Zs9Ubd-8" value="Inventorynumber" style="text;align=left;verticalAlign=top;spacingLeft=4;spacingRight=4;overflow=hidden;rotatable=0;points=[[0,0.5],[1,0.5]];portConstraint=eastwest;rounded=0;shadow=0;html=0;" parent="1lBgvDwlUtv7d7Zs9Ubd-6" vertex="1">
                    <mxGeometry y="78" width="190" height="26" as="geometry"/>
                </mxCell>
                <mxCell id="1lBgvDwlUtv7d7Zs9Ubd-9" value="Manufacturer" style="text;align=left;verticalAlign=top;spacingLeft=4;spacingRight=4;overflow=hidden;rotatable=0;points=[[0,0.5],[1,0.5]];portConstraint=eastwest;rounded=0;shadow=0;html=0;" parent="1lBgvDwlUtv7d7Zs9Ubd-6" vertex="1">
                    <mxGeometry y="104" width="190" height="26" as="geometry"/>
                </mxCell>
                <mxCell id="1lBgvDwlUtv7d7Zs9Ubd-12" value="Max. Life expectancy" style="text;align=left;verticalAlign=top;spacingLeft=4;spacingRight=4;overflow=hidden;rotatable=0;points=[[0,0.5],[1,0.5]];portConstraint=eastwest;rounded=0;shadow=0;html=0;" parent="1lBgvDwlUtv7d7Zs9Ubd-6" vertex="1">
                    <mxGeometry y="130" width="190" height="26" as="geometry"/>
                </mxCell>
                <mxCell id="1lBgvDwlUtv7d7Zs9Ubd-22" value="Max. Service duration" style="text;align=left;verticalAlign=top;spacingLeft=4;spacingRight=4;overflow=hidden;rotatable=0;points=[[0,0.5],[1,0.5]];portConstraint=eastwest;rounded=0;shadow=0;html=0;" parent="1lBgvDwlUtv7d7Zs9Ubd-6" vertex="1">
                    <mxGeometry y="156" width="190" height="26" as="geometry"/>
                </mxCell>
                <mxCell id="1lBgvDwlUtv7d7Zs9Ubd-23" value="Installation Date" style="text;align=left;verticalAlign=top;spacingLeft=4;spacingRight=4;overflow=hidden;rotatable=0;points=[[0,0.5],[1,0.5]];portConstraint=eastwest;rounded=0;shadow=0;html=0;" parent="1lBgvDwlUtv7d7Zs9Ubd-6" vertex="1">
                    <mxGeometry y="182" width="190" height="26" as="geometry"/>
                </mxCell>
                <mxCell id="1lBgvDwlUtv7d7Zs9Ubd-24" value="Instructions" style="text;align=left;verticalAlign=top;spacingLeft=4;spacingRight=4;overflow=hidden;rotatable=0;points=[[0,0.5],[1,0.5]];portConstraint=eastwest;rounded=0;shadow=0;html=0;" parent="1lBgvDwlUtv7d7Zs9Ubd-6" vertex="1">
                    <mxGeometry y="208" width="190" height="26" as="geometry"/>
                </mxCell>
                <mxCell id="1lBgvDwlUtv7d7Zs9Ubd-42" value="(Date next PSA-Inspection)" style="text;align=left;verticalAlign=top;spacingLeft=4;spacingRight=4;overflow=hidden;rotatable=0;points=[[0,0.5],[1,0.5]];portConstraint=eastwest;rounded=0;shadow=0;html=0;" parent="1lBgvDwlUtv7d7Zs9Ubd-6" vertex="1">
                    <mxGeometry y="234" width="190" height="26" as="geometry"/>
                </mxCell>
                <mxCell id="1lBgvDwlUtv7d7Zs9Ubd-49" value="Set-ID" style="text;align=left;verticalAlign=top;spacingLeft=4;spacingRight=4;overflow=hidden;rotatable=0;points=[[0,0.5],[1,0.5]];portConstraint=eastwest;rounded=0;shadow=0;html=0;" parent="1lBgvDwlUtv7d7Zs9Ubd-6" vertex="1">
                    <mxGeometry y="260" width="190" height="26" as="geometry"/>
                </mxCell>
                <mxCell id="1lBgvDwlUtv7d7Zs9Ubd-56" value="Rental fee" style="text;align=left;verticalAlign=top;spacingLeft=4;spacingRight=4;overflow=hidden;rotatable=0;points=[[0,0.5],[1,0.5]];portConstraint=eastwest;rounded=0;shadow=0;html=0;" parent="1lBgvDwlUtv7d7Zs9Ubd-6" vertex="1">
                    <mxGeometry y="286" width="190" height="26" as="geometry"/>
                </mxCell>
                <mxCell id="1lBgvDwlUtv7d7Zs9Ubd-57" value="Condition" style="text;align=left;verticalAlign=top;spacingLeft=4;spacingRight=4;overflow=hidden;rotatable=0;points=[[0,0.5],[1,0.5]];portConstraint=eastwest;rounded=0;shadow=0;html=0;" parent="1lBgvDwlUtv7d7Zs9Ubd-6" vertex="1">
                    <mxGeometry y="312" width="190" height="26" as="geometry"/>
                </mxCell>
                <mxCell id="mmh_hH_gYKxoH7ZBBsEL-120" value="Usage in days" style="text;align=left;verticalAlign=top;spacingLeft=4;spacingRight=4;overflow=hidden;rotatable=0;points=[[0,0.5],[1,0.5]];portConstraint=eastwest;rounded=0;shadow=0;html=0;" parent="1lBgvDwlUtv7d7Zs9Ubd-6" vertex="1">
                    <mxGeometry y="338" width="190" height="26" as="geometry"/>
                </mxCell>
                <mxCell id="1lBgvDwlUtv7d7Zs9Ubd-13" value="Purchase-Details" style="swimlane;fontStyle=2;align=center;verticalAlign=top;childLayout=stackLayout;horizontal=1;startSize=26;horizontalStack=0;resizeParent=1;resizeLast=0;collapsible=1;marginBottom=0;rounded=0;shadow=0;strokeWidth=1;" parent="WIyWlLk6GJQsqaUBKTNV-1" vertex="1">
                    <mxGeometry x="970" y="540" width="210" height="216" as="geometry">
                        <mxRectangle x="230" y="140" width="160" height="26" as="alternateBounds"/>
                    </mxGeometry>
                </mxCell>
                <mxCell id="1lBgvDwlUtv7d7Zs9Ubd-14" value="MaterialID" style="text;align=left;verticalAlign=top;spacingLeft=4;spacingRight=4;overflow=hidden;rotatable=0;points=[[0,0.5],[1,0.5]];portConstraint=eastwest;fontStyle=5" parent="1lBgvDwlUtv7d7Zs9Ubd-13" vertex="1">
                    <mxGeometry y="26" width="210" height="26" as="geometry"/>
                </mxCell>
                <mxCell id="1lBgvDwlUtv7d7Zs9Ubd-15" value="Purchase date" style="text;align=left;verticalAlign=top;spacingLeft=4;spacingRight=4;overflow=hidden;rotatable=0;points=[[0,0.5],[1,0.5]];portConstraint=eastwest;rounded=0;shadow=0;html=0;" parent="1lBgvDwlUtv7d7Zs9Ubd-13" vertex="1">
                    <mxGeometry y="52" width="210" height="26" as="geometry"/>
                </mxCell>
                <mxCell id="1lBgvDwlUtv7d7Zs9Ubd-16" value="Invocenumber" style="text;align=left;verticalAlign=top;spacingLeft=4;spacingRight=4;overflow=hidden;rotatable=0;points=[[0,0.5],[1,0.5]];portConstraint=eastwest;rounded=0;shadow=0;html=0;" parent="1lBgvDwlUtv7d7Zs9Ubd-13" vertex="1">
                    <mxGeometry y="78" width="210" height="26" as="geometry"/>
                </mxCell>
                <mxCell id="1lBgvDwlUtv7d7Zs9Ubd-19" value="Merchant" style="text;align=left;verticalAlign=top;spacingLeft=4;spacingRight=4;overflow=hidden;rotatable=0;points=[[0,0.5],[1,0.5]];portConstraint=eastwest;rounded=0;shadow=0;html=0;" parent="1lBgvDwlUtv7d7Zs9Ubd-13" vertex="1">
                    <mxGeometry y="104" width="210" height="26" as="geometry"/>
                </mxCell>
                <mxCell id="1lBgvDwlUtv7d7Zs9Ubd-21" value="Production date" style="text;align=left;verticalAlign=top;spacingLeft=4;spacingRight=4;overflow=hidden;rotatable=0;points=[[0,0.5],[1,0.5]];portConstraint=eastwest;rounded=0;shadow=0;html=0;" parent="1lBgvDwlUtv7d7Zs9Ubd-13" vertex="1">
                    <mxGeometry y="130" width="210" height="26" as="geometry"/>
                </mxCell>
                <mxCell id="1lBgvDwlUtv7d7Zs9Ubd-50" value="Purchase price" style="text;align=left;verticalAlign=top;spacingLeft=4;spacingRight=4;overflow=hidden;rotatable=0;points=[[0,0.5],[1,0.5]];portConstraint=eastwest;rounded=0;shadow=0;html=0;" parent="1lBgvDwlUtv7d7Zs9Ubd-13" vertex="1">
                    <mxGeometry y="156" width="210" height="26" as="geometry"/>
                </mxCell>
                <mxCell id="1lBgvDwlUtv7d7Zs9Ubd-51" value="Suggested retail price" style="text;align=left;verticalAlign=top;spacingLeft=4;spacingRight=4;overflow=hidden;rotatable=0;points=[[0,0.5],[1,0.5]];portConstraint=eastwest;rounded=0;shadow=0;html=0;" parent="1lBgvDwlUtv7d7Zs9Ubd-13" vertex="1">
                    <mxGeometry y="182" width="210" height="26" as="geometry"/>
                </mxCell>
                <mxCell id="1lBgvDwlUtv7d7Zs9Ubd-43" value="PSA-Inspection-Material-Comment-Mapping" style="swimlane;fontStyle=2;align=center;verticalAlign=top;childLayout=stackLayout;horizontal=1;startSize=26;horizontalStack=0;resizeParent=1;resizeLast=0;collapsible=1;marginBottom=0;rounded=0;shadow=0;strokeWidth=1;strokeColor=#FF3333;" parent="WIyWlLk6GJQsqaUBKTNV-1" vertex="1" collapsed="1">
                    <mxGeometry x="464" y="178" width="160" height="26" as="geometry">
                        <mxRectangle x="464" y="178" width="270" height="132" as="alternateBounds"/>
                    </mxGeometry>
                </mxCell>
                <mxCell id="1lBgvDwlUtv7d7Zs9Ubd-44" value="PSAID" style="text;align=left;verticalAlign=top;spacingLeft=4;spacingRight=4;overflow=hidden;rotatable=0;points=[[0,0.5],[1,0.5]];portConstraint=eastwest;fontStyle=5;strokeColor=#FF3333;" parent="1lBgvDwlUtv7d7Zs9Ubd-43" vertex="1">
                    <mxGeometry y="26" width="270" height="22" as="geometry"/>
                </mxCell>
                <mxCell id="1lBgvDwlUtv7d7Zs9Ubd-45" value="Comment" style="text;align=left;verticalAlign=top;spacingLeft=4;spacingRight=4;overflow=hidden;rotatable=0;points=[[0,0.5],[1,0.5]];portConstraint=eastwest;rounded=0;shadow=0;html=0;strokeColor=#FF3333;" parent="1lBgvDwlUtv7d7Zs9Ubd-43" vertex="1">
                    <mxGeometry y="48" width="270" height="28" as="geometry"/>
                </mxCell>
                <mxCell id="1lBgvDwlUtv7d7Zs9Ubd-48" value="MaterialID" style="text;align=left;verticalAlign=top;spacingLeft=4;spacingRight=4;overflow=hidden;rotatable=0;points=[[0,0.5],[1,0.5]];portConstraint=eastwest;rounded=0;shadow=0;html=0;fontStyle=1;strokeColor=#FF3333;" parent="1lBgvDwlUtv7d7Zs9Ubd-43" vertex="1">
                    <mxGeometry y="76" width="270" height="28" as="geometry"/>
                </mxCell>
                <mxCell id="mmh_hH_gYKxoH7ZBBsEL-60" value="Photo" style="text;align=left;verticalAlign=top;spacingLeft=4;spacingRight=4;overflow=hidden;rotatable=0;points=[[0,0.5],[1,0.5]];portConstraint=eastwest;strokeColor=#FF3333;" parent="1lBgvDwlUtv7d7Zs9Ubd-43" vertex="1">
                    <mxGeometry y="104" width="270" height="26" as="geometry"/>
                </mxCell>
                <mxCell id="mmh_hH_gYKxoH7ZBBsEL-0" value="User" style="swimlane;fontStyle=2;align=center;verticalAlign=top;childLayout=stackLayout;horizontal=1;startSize=26;horizontalStack=0;resizeParent=1;resizeLast=0;collapsible=1;marginBottom=0;rounded=0;shadow=0;strokeWidth=1;" parent="WIyWlLk6GJQsqaUBKTNV-1" vertex="1">
                    <mxGeometry x="120" y="479" width="160" height="136" as="geometry">
                        <mxRectangle x="230" y="140" width="160" height="26" as="alternateBounds"/>
                    </mxGeometry>
                </mxCell>
                <mxCell id="mmh_hH_gYKxoH7ZBBsEL-1" value="UserID" style="text;align=left;verticalAlign=top;spacingLeft=4;spacingRight=4;overflow=hidden;rotatable=0;points=[[0,0.5],[1,0.5]];portConstraint=eastwest;fontStyle=5" parent="mmh_hH_gYKxoH7ZBBsEL-0" vertex="1">
                    <mxGeometry y="26" width="160" height="26" as="geometry"/>
                </mxCell>
                <mxCell id="mmh_hH_gYKxoH7ZBBsEL-82" value="FirstName" style="text;align=left;verticalAlign=top;spacingLeft=4;spacingRight=4;overflow=hidden;rotatable=0;points=[[0,0.5],[1,0.5]];portConstraint=eastwest;rounded=0;shadow=0;html=0;" parent="mmh_hH_gYKxoH7ZBBsEL-0" vertex="1">
                    <mxGeometry y="52" width="160" height="28" as="geometry"/>
                </mxCell>
                <mxCell id="mmh_hH_gYKxoH7ZBBsEL-83" value="LastName" style="text;align=left;verticalAlign=top;spacingLeft=4;spacingRight=4;overflow=hidden;rotatable=0;points=[[0,0.5],[1,0.5]];portConstraint=eastwest;rounded=0;shadow=0;html=0;" parent="mmh_hH_gYKxoH7ZBBsEL-0" vertex="1">
                    <mxGeometry y="80" width="160" height="28" as="geometry"/>
                </mxCell>
                <mxCell id="mmh_hH_gYKxoH7ZBBsEL-102" value="MembershipNumber" style="text;align=left;verticalAlign=top;spacingLeft=4;spacingRight=4;overflow=hidden;rotatable=0;points=[[0,0.5],[1,0.5]];portConstraint=eastwest;rounded=0;shadow=0;html=0;" parent="mmh_hH_gYKxoH7ZBBsEL-0" vertex="1">
                    <mxGeometry y="108" width="160" height="28" as="geometry"/>
                </mxCell>
                <mxCell id="mmh_hH_gYKxoH7ZBBsEL-14" value="Role" style="swimlane;fontStyle=2;align=center;verticalAlign=top;childLayout=stackLayout;horizontal=1;startSize=26;horizontalStack=0;resizeParent=1;resizeLast=0;collapsible=1;marginBottom=0;rounded=0;shadow=0;strokeWidth=1;" parent="WIyWlLk6GJQsqaUBKTNV-1" vertex="1">
                    <mxGeometry x="424" y="641" width="160" height="110" as="geometry">
                        <mxRectangle x="230" y="140" width="160" height="26" as="alternateBounds"/>
                    </mxGeometry>
                </mxCell>
                <mxCell id="mmh_hH_gYKxoH7ZBBsEL-15" value="RoleID" style="text;align=left;verticalAlign=top;spacingLeft=4;spacingRight=4;overflow=hidden;rotatable=0;points=[[0,0.5],[1,0.5]];portConstraint=eastwest;fontStyle=5" parent="mmh_hH_gYKxoH7ZBBsEL-14" vertex="1">
                    <mxGeometry y="26" width="160" height="22" as="geometry"/>
                </mxCell>
                <mxCell id="mmh_hH_gYKxoH7ZBBsEL-16" value="Name" style="text;align=left;verticalAlign=top;spacingLeft=4;spacingRight=4;overflow=hidden;rotatable=0;points=[[0,0.5],[1,0.5]];portConstraint=eastwest;rounded=0;shadow=0;html=0;" parent="mmh_hH_gYKxoH7ZBBsEL-14" vertex="1">
                    <mxGeometry y="48" width="160" height="28" as="geometry"/>
                </mxCell>
                <mxCell id="mmh_hH_gYKxoH7ZBBsEL-17" value="Description" style="text;align=left;verticalAlign=top;spacingLeft=4;spacingRight=4;overflow=hidden;rotatable=0;points=[[0,0.5],[1,0.5]];portConstraint=eastwest;rounded=0;shadow=0;html=0;" parent="mmh_hH_gYKxoH7ZBBsEL-14" vertex="1">
                    <mxGeometry y="76" width="160" height="28" as="geometry"/>
                </mxCell>
                <mxCell id="mmh_hH_gYKxoH7ZBBsEL-19" value="PSA-Inspection" style="swimlane;fontStyle=0;align=center;verticalAlign=top;childLayout=stackLayout;horizontal=1;startSize=26;horizontalStack=0;resizeParent=1;resizeLast=0;collapsible=1;marginBottom=0;rounded=0;shadow=0;strokeWidth=1;" parent="WIyWlLk6GJQsqaUBKTNV-1" vertex="1">
                    <mxGeometry x="120" y="160" width="180" height="160" as="geometry">
                        <mxRectangle x="340" y="380" width="170" height="26" as="alternateBounds"/>
                    </mxGeometry>
                </mxCell>
                <mxCell id="mmh_hH_gYKxoH7ZBBsEL-20" value="PSAID" style="text;align=left;verticalAlign=top;spacingLeft=4;spacingRight=4;overflow=hidden;rotatable=0;points=[[0,0.5],[1,0.5]];portConstraint=eastwest;fontStyle=5" parent="mmh_hH_gYKxoH7ZBBsEL-19" vertex="1">
                    <mxGeometry y="26" width="180" height="26" as="geometry"/>
                </mxCell>
                <mxCell id="mmh_hH_gYKxoH7ZBBsEL-26" value="InspectorID" style="text;align=left;verticalAlign=top;spacingLeft=4;spacingRight=4;overflow=hidden;rotatable=0;points=[[0,0.5],[1,0.5]];portConstraint=eastwest;fontStyle=1" parent="mmh_hH_gYKxoH7ZBBsEL-19" vertex="1">
                    <mxGeometry y="52" width="180" height="26" as="geometry"/>
                </mxCell>
                <mxCell id="mmh_hH_gYKxoH7ZBBsEL-25" value="Date" style="text;align=left;verticalAlign=top;spacingLeft=4;spacingRight=4;overflow=hidden;rotatable=0;points=[[0,0.5],[1,0.5]];portConstraint=eastwest;" parent="mmh_hH_gYKxoH7ZBBsEL-19" vertex="1">
                    <mxGeometry y="78" width="180" height="26" as="geometry"/>
                </mxCell>
                <mxCell id="mmh_hH_gYKxoH7ZBBsEL-23" value="Status" style="text;align=left;verticalAlign=top;spacingLeft=4;spacingRight=4;overflow=hidden;rotatable=0;points=[[0,0.5],[1,0.5]];portConstraint=eastwest;" parent="mmh_hH_gYKxoH7ZBBsEL-19" vertex="1">
                    <mxGeometry y="104" width="180" height="26" as="geometry"/>
                </mxCell>
                <mxCell id="mmh_hH_gYKxoH7ZBBsEL-58" value="RentalID" style="text;align=left;verticalAlign=top;spacingLeft=4;spacingRight=4;overflow=hidden;rotatable=0;points=[[0,0.5],[1,0.5]];portConstraint=eastwest;fontStyle=1" parent="mmh_hH_gYKxoH7ZBBsEL-19" vertex="1">
                    <mxGeometry y="130" width="180" height="26" as="geometry"/>
                </mxCell>
                <mxCell id="mmh_hH_gYKxoH7ZBBsEL-28" style="edgeStyle=orthogonalEdgeStyle;rounded=0;orthogonalLoop=1;jettySize=auto;html=1;exitX=0;exitY=0.5;exitDx=0;exitDy=0;entryX=0;entryY=0.5;entryDx=0;entryDy=0;" parent="WIyWlLk6GJQsqaUBKTNV-1" source="mmh_hH_gYKxoH7ZBBsEL-1" target="mmh_hH_gYKxoH7ZBBsEL-26" edge="1">
                    <mxGeometry relative="1" as="geometry"/>
                </mxCell>
                <mxCell id="mmh_hH_gYKxoH7ZBBsEL-32" style="edgeStyle=orthogonalEdgeStyle;rounded=0;orthogonalLoop=1;jettySize=auto;html=1;exitX=1;exitY=0.5;exitDx=0;exitDy=0;entryX=0;entryY=0.5;entryDx=0;entryDy=0;" parent="WIyWlLk6GJQsqaUBKTNV-1" source="1lBgvDwlUtv7d7Zs9Ubd-7" target="1lBgvDwlUtv7d7Zs9Ubd-14" edge="1">
                    <mxGeometry relative="1" as="geometry">
                        <mxPoint x="1010" y="729.5294117647059" as="targetPoint"/>
                    </mxGeometry>
                </mxCell>
                <mxCell id="mmh_hH_gYKxoH7ZBBsEL-33" style="edgeStyle=orthogonalEdgeStyle;rounded=0;orthogonalLoop=1;jettySize=auto;html=1;exitX=1;exitY=0.5;exitDx=0;exitDy=0;entryX=0;entryY=0.5;entryDx=0;entryDy=0;" parent="WIyWlLk6GJQsqaUBKTNV-1" source="1lBgvDwlUtv7d7Zs9Ubd-7" target="1lBgvDwlUtv7d7Zs9Ubd-1" edge="1">
                    <mxGeometry relative="1" as="geometry"/>
                </mxCell>
                <mxCell id="mmh_hH_gYKxoH7ZBBsEL-37" value="Material-Rental-Mapping" style="swimlane;fontStyle=2;align=center;verticalAlign=top;childLayout=stackLayout;horizontal=1;startSize=26;horizontalStack=0;resizeParent=1;resizeLast=0;collapsible=1;marginBottom=0;rounded=0;shadow=0;strokeWidth=1;" parent="WIyWlLk6GJQsqaUBKTNV-1" vertex="1" collapsed="1">
                    <mxGeometry x="1200" y="298" width="160" height="26" as="geometry">
                        <mxRectangle x="1200" y="298" width="160" height="80" as="alternateBounds"/>
                    </mxGeometry>
                </mxCell>
                <mxCell id="mmh_hH_gYKxoH7ZBBsEL-38" value="RentalID" style="text;align=left;verticalAlign=top;spacingLeft=4;spacingRight=4;overflow=hidden;rotatable=0;points=[[0,0.5],[1,0.5]];portConstraint=eastwest;fontStyle=1" parent="mmh_hH_gYKxoH7ZBBsEL-37" vertex="1">
                    <mxGeometry y="26" width="160" height="26" as="geometry"/>
                </mxCell>
                <mxCell id="mmh_hH_gYKxoH7ZBBsEL-39" value="MaterialID" style="text;align=left;verticalAlign=top;spacingLeft=4;spacingRight=4;overflow=hidden;rotatable=0;points=[[0,0.5],[1,0.5]];portConstraint=eastwest;rounded=0;shadow=0;html=0;fontStyle=1" parent="mmh_hH_gYKxoH7ZBBsEL-37" vertex="1">
                    <mxGeometry y="52" width="160" height="26" as="geometry"/>
                </mxCell>
                <mxCell id="mmh_hH_gYKxoH7ZBBsEL-42" style="edgeStyle=orthogonalEdgeStyle;rounded=0;orthogonalLoop=1;jettySize=auto;html=1;exitX=1;exitY=0.5;exitDx=0;exitDy=0;" parent="WIyWlLk6GJQsqaUBKTNV-1" target="mmh_hH_gYKxoH7ZBBsEL-37" edge="1">
                    <mxGeometry relative="1" as="geometry">
                        <mxPoint x="869" y="456" as="sourcePoint"/>
                        <mxPoint x="1200" y="363" as="targetPoint"/>
                        <Array as="points">
                            <mxPoint x="1160" y="456"/>
                            <mxPoint x="1160" y="363"/>
                            <mxPoint x="1280" y="363"/>
                        </Array>
                    </mxGeometry>
                </mxCell>
                <mxCell id="mmh_hH_gYKxoH7ZBBsEL-43" value="Rental" style="swimlane;fontStyle=2;align=center;verticalAlign=top;childLayout=stackLayout;horizontal=1;startSize=26;horizontalStack=0;resizeParent=1;resizeLast=0;collapsible=1;marginBottom=0;rounded=0;shadow=0;strokeWidth=1;" parent="WIyWlLk6GJQsqaUBKTNV-1" vertex="1">
                    <mxGeometry x="1440" y="80" width="160" height="290" as="geometry">
                        <mxRectangle x="230" y="140" width="160" height="26" as="alternateBounds"/>
                    </mxGeometry>
                </mxCell>
                <mxCell id="mmh_hH_gYKxoH7ZBBsEL-44" value="RenatalID" style="text;align=left;verticalAlign=top;spacingLeft=4;spacingRight=4;overflow=hidden;rotatable=0;points=[[0,0.5],[1,0.5]];portConstraint=eastwest;fontStyle=5" parent="mmh_hH_gYKxoH7ZBBsEL-43" vertex="1">
                    <mxGeometry y="26" width="160" height="26" as="geometry"/>
                </mxCell>
                <mxCell id="mmh_hH_gYKxoH7ZBBsEL-45" value="CustomerID" style="text;align=left;verticalAlign=top;spacingLeft=4;spacingRight=4;overflow=hidden;rotatable=0;points=[[0,0.5],[1,0.5]];portConstraint=eastwest;rounded=0;shadow=0;html=0;fontStyle=1" parent="mmh_hH_gYKxoH7ZBBsEL-43" vertex="1">
                    <mxGeometry y="52" width="160" height="26" as="geometry"/>
                </mxCell>
                <mxCell id="mmh_hH_gYKxoH7ZBBsEL-46" value="LenderID" style="text;align=left;verticalAlign=top;spacingLeft=4;spacingRight=4;overflow=hidden;rotatable=0;points=[[0,0.5],[1,0.5]];portConstraint=eastwest;rounded=0;shadow=0;html=0;fontStyle=1" parent="mmh_hH_gYKxoH7ZBBsEL-43" vertex="1">
                    <mxGeometry y="78" width="160" height="26" as="geometry"/>
                </mxCell>
                <mxCell id="mmh_hH_gYKxoH7ZBBsEL-47" value="Total Amount" style="text;align=left;verticalAlign=top;spacingLeft=4;spacingRight=4;overflow=hidden;rotatable=0;points=[[0,0.5],[1,0.5]];portConstraint=eastwest;rounded=0;shadow=0;html=0;" parent="mmh_hH_gYKxoH7ZBBsEL-43" vertex="1">
                    <mxGeometry y="104" width="160" height="26" as="geometry"/>
                </mxCell>
                <mxCell id="mmh_hH_gYKxoH7ZBBsEL-48" value="RentalStatusID" style="text;align=left;verticalAlign=top;spacingLeft=4;spacingRight=4;overflow=hidden;rotatable=0;points=[[0,0.5],[1,0.5]];portConstraint=eastwest;rounded=0;shadow=0;html=0;fontStyle=1" parent="mmh_hH_gYKxoH7ZBBsEL-43" vertex="1">
                    <mxGeometry y="130" width="160" height="26" as="geometry"/>
                </mxCell>
                <mxCell id="mmh_hH_gYKxoH7ZBBsEL-55" value="Date" style="text;align=left;verticalAlign=top;spacingLeft=4;spacingRight=4;overflow=hidden;rotatable=0;points=[[0,0.5],[1,0.5]];portConstraint=eastwest;rounded=0;shadow=0;html=0;" parent="mmh_hH_gYKxoH7ZBBsEL-43" vertex="1">
                    <mxGeometry y="156" width="160" height="26" as="geometry"/>
                </mxCell>
                <mxCell id="mmh_hH_gYKxoH7ZBBsEL-56" value="Rental duration" style="text;align=left;verticalAlign=top;spacingLeft=4;spacingRight=4;overflow=hidden;rotatable=0;points=[[0,0.5],[1,0.5]];portConstraint=eastwest;rounded=0;shadow=0;html=0;" parent="mmh_hH_gYKxoH7ZBBsEL-43" vertex="1">
                    <mxGeometry y="182" width="160" height="26" as="geometry"/>
                </mxCell>
                <mxCell id="mmh_hH_gYKxoH7ZBBsEL-57" value="Usage duration" style="text;align=left;verticalAlign=top;spacingLeft=4;spacingRight=4;overflow=hidden;rotatable=0;points=[[0,0.5],[1,0.5]];portConstraint=eastwest;rounded=0;shadow=0;html=0;" parent="mmh_hH_gYKxoH7ZBBsEL-43" vertex="1">
                    <mxGeometry y="208" width="160" height="26" as="geometry"/>
                </mxCell>
                <mxCell id="mmh_hH_gYKxoH7ZBBsEL-59" value="ReturnToID" style="text;align=left;verticalAlign=top;spacingLeft=4;spacingRight=4;overflow=hidden;rotatable=0;points=[[0,0.5],[1,0.5]];portConstraint=eastwest;rounded=0;shadow=0;html=0;fontStyle=1" parent="mmh_hH_gYKxoH7ZBBsEL-43" vertex="1">
                    <mxGeometry y="234" width="160" height="16" as="geometry"/>
                </mxCell>
                <mxCell id="mmh_hH_gYKxoH7ZBBsEL-103" value="Deposit" style="text;align=left;verticalAlign=top;spacingLeft=4;spacingRight=4;overflow=hidden;rotatable=0;points=[[0,0.5],[1,0.5]];portConstraint=eastwest;rounded=0;shadow=0;html=0;" parent="mmh_hH_gYKxoH7ZBBsEL-43" vertex="1">
                    <mxGeometry y="250" width="160" height="26" as="geometry"/>
                </mxCell>
                <mxCell id="mmh_hH_gYKxoH7ZBBsEL-49" value="Rental-Status" style="swimlane;fontStyle=2;align=center;verticalAlign=top;childLayout=stackLayout;horizontal=1;startSize=26;horizontalStack=0;resizeParent=1;resizeLast=0;collapsible=1;marginBottom=0;rounded=0;shadow=0;strokeWidth=1;" parent="WIyWlLk6GJQsqaUBKTNV-1" vertex="1">
                    <mxGeometry x="1740" y="185" width="160" height="80" as="geometry">
                        <mxRectangle x="230" y="140" width="160" height="26" as="alternateBounds"/>
                    </mxGeometry>
                </mxCell>
                <mxCell id="mmh_hH_gYKxoH7ZBBsEL-50" value="Rental-Status-ID" style="text;align=left;verticalAlign=top;spacingLeft=4;spacingRight=4;overflow=hidden;rotatable=0;points=[[0,0.5],[1,0.5]];portConstraint=eastwest;fontStyle=5" parent="mmh_hH_gYKxoH7ZBBsEL-49" vertex="1">
                    <mxGeometry y="26" width="160" height="26" as="geometry"/>
                </mxCell>
                <mxCell id="mmh_hH_gYKxoH7ZBBsEL-51" value="Name" style="text;align=left;verticalAlign=top;spacingLeft=4;spacingRight=4;overflow=hidden;rotatable=0;points=[[0,0.5],[1,0.5]];portConstraint=eastwest;rounded=0;shadow=0;html=0;" parent="mmh_hH_gYKxoH7ZBBsEL-49" vertex="1">
                    <mxGeometry y="52" width="160" height="26" as="geometry"/>
                </mxCell>
                <mxCell id="mmh_hH_gYKxoH7ZBBsEL-53" style="edgeStyle=orthogonalEdgeStyle;rounded=0;orthogonalLoop=1;jettySize=auto;html=1;exitX=0;exitY=0.5;exitDx=0;exitDy=0;entryX=0;entryY=0.5;entryDx=0;entryDy=0;" parent="WIyWlLk6GJQsqaUBKTNV-1" source="mmh_hH_gYKxoH7ZBBsEL-38" target="mmh_hH_gYKxoH7ZBBsEL-44" edge="1">
                    <mxGeometry relative="1" as="geometry"/>
                </mxCell>
                <mxCell id="mmh_hH_gYKxoH7ZBBsEL-54" style="edgeStyle=orthogonalEdgeStyle;rounded=0;orthogonalLoop=1;jettySize=auto;html=1;exitX=1;exitY=0.5;exitDx=0;exitDy=0;entryX=0;entryY=0.5;entryDx=0;entryDy=0;" parent="WIyWlLk6GJQsqaUBKTNV-1" source="mmh_hH_gYKxoH7ZBBsEL-48" target="mmh_hH_gYKxoH7ZBBsEL-50" edge="1">
                    <mxGeometry relative="1" as="geometry">
                        <Array as="points">
                            <mxPoint x="1660" y="223"/>
                            <mxPoint x="1740" y="224"/>
                        </Array>
                    </mxGeometry>
                </mxCell>
                <mxCell id="mmh_hH_gYKxoH7ZBBsEL-61" style="edgeStyle=orthogonalEdgeStyle;rounded=0;orthogonalLoop=1;jettySize=auto;html=1;exitX=1;exitY=0.5;exitDx=0;exitDy=0;entryX=0;entryY=0.5;entryDx=0;entryDy=0;" parent="WIyWlLk6GJQsqaUBKTNV-1" source="mmh_hH_gYKxoH7ZBBsEL-20" target="1lBgvDwlUtv7d7Zs9Ubd-44" edge="1">
                    <mxGeometry relative="1" as="geometry">
                        <Array as="points">
                            <mxPoint x="300" y="197"/>
                        </Array>
                    </mxGeometry>
                </mxCell>
                <mxCell id="mmh_hH_gYKxoH7ZBBsEL-62" style="edgeStyle=orthogonalEdgeStyle;rounded=0;orthogonalLoop=1;jettySize=auto;html=1;exitX=0;exitY=0.5;exitDx=0;exitDy=0;entryX=0;entryY=0.5;entryDx=0;entryDy=0;" parent="WIyWlLk6GJQsqaUBKTNV-1" source="1lBgvDwlUtv7d7Zs9Ubd-7" target="1lBgvDwlUtv7d7Zs9Ubd-48" edge="1">
                    <mxGeometry relative="1" as="geometry"/>
                </mxCell>
                <mxCell id="mmh_hH_gYKxoH7ZBBsEL-63" value="Customer" style="swimlane;fontStyle=2;align=center;verticalAlign=top;childLayout=stackLayout;horizontal=1;startSize=26;horizontalStack=0;resizeParent=1;resizeLast=0;collapsible=1;marginBottom=0;rounded=0;shadow=0;strokeWidth=1;" parent="WIyWlLk6GJQsqaUBKTNV-1" vertex="1">
                    <mxGeometry x="-160" y="480" width="160" height="240" as="geometry">
                        <mxRectangle x="230" y="140" width="160" height="26" as="alternateBounds"/>
                    </mxGeometry>
                </mxCell>
                <mxCell id="mmh_hH_gYKxoH7ZBBsEL-64" value="UserID" style="text;align=left;verticalAlign=top;spacingLeft=4;spacingRight=4;overflow=hidden;rotatable=0;points=[[0,0.5],[1,0.5]];portConstraint=eastwest;fontStyle=5" parent="mmh_hH_gYKxoH7ZBBsEL-63" vertex="1">
                    <mxGeometry y="26" width="160" height="22" as="geometry"/>
                </mxCell>
                <mxCell id="mmh_hH_gYKxoH7ZBBsEL-67" value="Email" style="text;align=left;verticalAlign=top;spacingLeft=4;spacingRight=4;overflow=hidden;rotatable=0;points=[[0,0.5],[1,0.5]];portConstraint=eastwest;rounded=0;shadow=0;html=0;" parent="mmh_hH_gYKxoH7ZBBsEL-63" vertex="1">
                    <mxGeometry y="48" width="160" height="26" as="geometry"/>
                </mxCell>
                <mxCell id="mmh_hH_gYKxoH7ZBBsEL-68" value="Phone" style="text;align=left;verticalAlign=top;spacingLeft=4;spacingRight=4;overflow=hidden;rotatable=0;points=[[0,0.5],[1,0.5]];portConstraint=eastwest;rounded=0;shadow=0;html=0;" parent="mmh_hH_gYKxoH7ZBBsEL-63" vertex="1">
                    <mxGeometry y="74" width="160" height="26" as="geometry"/>
                </mxCell>
                <mxCell id="mmh_hH_gYKxoH7ZBBsEL-69" value="Address1" style="text;align=left;verticalAlign=top;spacingLeft=4;spacingRight=4;overflow=hidden;rotatable=0;points=[[0,0.5],[1,0.5]];portConstraint=eastwest;rounded=0;shadow=0;html=0;" parent="mmh_hH_gYKxoH7ZBBsEL-63" vertex="1">
                    <mxGeometry y="100" width="160" height="26" as="geometry"/>
                </mxCell>
                <mxCell id="mmh_hH_gYKxoH7ZBBsEL-70" value="Address2" style="text;align=left;verticalAlign=top;spacingLeft=4;spacingRight=4;overflow=hidden;rotatable=0;points=[[0,0.5],[1,0.5]];portConstraint=eastwest;rounded=0;shadow=0;html=0;" parent="mmh_hH_gYKxoH7ZBBsEL-63" vertex="1">
                    <mxGeometry y="126" width="160" height="26" as="geometry"/>
                </mxCell>
                <mxCell id="mmh_hH_gYKxoH7ZBBsEL-138" value="Category" style="text;align=left;verticalAlign=top;spacingLeft=4;spacingRight=4;overflow=hidden;rotatable=0;points=[[0,0.5],[1,0.5]];portConstraint=eastwest;rounded=0;shadow=0;html=0;" parent="mmh_hH_gYKxoH7ZBBsEL-63" vertex="1">
                    <mxGeometry y="152" width="160" height="26" as="geometry"/>
                </mxCell>
                <mxCell id="mmh_hH_gYKxoH7ZBBsEL-71" style="edgeStyle=orthogonalEdgeStyle;rounded=0;orthogonalLoop=1;jettySize=auto;html=1;entryX=1;entryY=0.5;entryDx=0;entryDy=0;exitX=0;exitY=0.5;exitDx=0;exitDy=0;" parent="WIyWlLk6GJQsqaUBKTNV-1" source="mmh_hH_gYKxoH7ZBBsEL-1" target="mmh_hH_gYKxoH7ZBBsEL-64" edge="1">
                    <mxGeometry relative="1" as="geometry">
                        <mxPoint x="70" y="849" as="sourcePoint"/>
                        <Array as="points">
                            <mxPoint y="518"/>
                        </Array>
                    </mxGeometry>
                </mxCell>
                <mxCell id="mmh_hH_gYKxoH7ZBBsEL-72" value="Rights" style="swimlane;fontStyle=2;align=center;verticalAlign=top;childLayout=stackLayout;horizontal=1;startSize=26;horizontalStack=0;resizeParent=1;resizeLast=0;collapsible=1;marginBottom=0;rounded=0;shadow=0;strokeWidth=1;" parent="WIyWlLk6GJQsqaUBKTNV-1" vertex="1">
                    <mxGeometry x="424" y="804" width="160" height="110" as="geometry">
                        <mxRectangle x="230" y="140" width="160" height="26" as="alternateBounds"/>
                    </mxGeometry>
                </mxCell>
                <mxCell id="mmh_hH_gYKxoH7ZBBsEL-73" value="RightID" style="text;align=left;verticalAlign=top;spacingLeft=4;spacingRight=4;overflow=hidden;rotatable=0;points=[[0,0.5],[1,0.5]];portConstraint=eastwest;fontStyle=5" parent="mmh_hH_gYKxoH7ZBBsEL-72" vertex="1">
                    <mxGeometry y="26" width="160" height="22" as="geometry"/>
                </mxCell>
                <mxCell id="mmh_hH_gYKxoH7ZBBsEL-74" value="Name" style="text;align=left;verticalAlign=top;spacingLeft=4;spacingRight=4;overflow=hidden;rotatable=0;points=[[0,0.5],[1,0.5]];portConstraint=eastwest;rounded=0;shadow=0;html=0;" parent="mmh_hH_gYKxoH7ZBBsEL-72" vertex="1">
                    <mxGeometry y="48" width="160" height="28" as="geometry"/>
                </mxCell>
                <mxCell id="mmh_hH_gYKxoH7ZBBsEL-75" value="Description" style="text;align=left;verticalAlign=top;spacingLeft=4;spacingRight=4;overflow=hidden;rotatable=0;points=[[0,0.5],[1,0.5]];portConstraint=eastwest;rounded=0;shadow=0;html=0;" parent="mmh_hH_gYKxoH7ZBBsEL-72" vertex="1">
                    <mxGeometry y="76" width="160" height="28" as="geometry"/>
                </mxCell>
                <mxCell id="mmh_hH_gYKxoH7ZBBsEL-76" value="Role-rights-Mapping" style="swimlane;fontStyle=2;align=center;verticalAlign=top;childLayout=stackLayout;horizontal=1;startSize=26;horizontalStack=0;resizeParent=1;resizeLast=0;collapsible=1;marginBottom=0;rounded=0;shadow=0;strokeWidth=1;" parent="WIyWlLk6GJQsqaUBKTNV-1" vertex="1" collapsed="1">
                    <mxGeometry x="160" y="777" width="160" height="26" as="geometry">
                        <mxRectangle x="160" y="777" width="160" height="76" as="alternateBounds"/>
                    </mxGeometry>
                </mxCell>
                <mxCell id="mmh_hH_gYKxoH7ZBBsEL-78" value="RoleID" style="text;align=left;verticalAlign=top;spacingLeft=4;spacingRight=4;overflow=hidden;rotatable=0;points=[[0,0.5],[1,0.5]];portConstraint=eastwest;rounded=0;shadow=0;html=0;fontStyle=1" parent="mmh_hH_gYKxoH7ZBBsEL-76" vertex="1">
                    <mxGeometry y="26" width="160" height="28" as="geometry"/>
                </mxCell>
                <mxCell id="mmh_hH_gYKxoH7ZBBsEL-77" value="RightID" style="text;align=left;verticalAlign=top;spacingLeft=4;spacingRight=4;overflow=hidden;rotatable=0;points=[[0,0.5],[1,0.5]];portConstraint=eastwest;fontStyle=1" parent="mmh_hH_gYKxoH7ZBBsEL-76" vertex="1">
                    <mxGeometry y="54" width="160" height="22" as="geometry"/>
                </mxCell>
                <mxCell id="mmh_hH_gYKxoH7ZBBsEL-84" value="User-Role-Mapping" style="swimlane;fontStyle=2;align=center;verticalAlign=top;childLayout=stackLayout;horizontal=1;startSize=26;horizontalStack=0;resizeParent=1;resizeLast=0;collapsible=1;marginBottom=0;rounded=0;shadow=0;strokeWidth=1;" parent="WIyWlLk6GJQsqaUBKTNV-1" vertex="1" collapsed="1">
                    <mxGeometry x="438" y="480" width="160" height="26" as="geometry">
                        <mxRectangle x="438" y="480" width="160" height="85" as="alternateBounds"/>
                    </mxGeometry>
                </mxCell>
                <mxCell id="mmh_hH_gYKxoH7ZBBsEL-85" value="UserID" style="text;align=left;verticalAlign=top;spacingLeft=4;spacingRight=4;overflow=hidden;rotatable=0;points=[[0,0.5],[1,0.5]];portConstraint=eastwest;fontStyle=1" parent="mmh_hH_gYKxoH7ZBBsEL-84" vertex="1">
                    <mxGeometry y="26" width="160" height="26" as="geometry"/>
                </mxCell>
                <mxCell id="mmh_hH_gYKxoH7ZBBsEL-86" value="RoleID" style="text;align=left;verticalAlign=top;spacingLeft=4;spacingRight=4;overflow=hidden;rotatable=0;points=[[0,0.5],[1,0.5]];portConstraint=eastwest;rounded=0;shadow=0;html=0;fontStyle=1" parent="mmh_hH_gYKxoH7ZBBsEL-84" vertex="1">
                    <mxGeometry y="52" width="160" height="28" as="geometry"/>
                </mxCell>
                <mxCell id="mmh_hH_gYKxoH7ZBBsEL-88" style="edgeStyle=orthogonalEdgeStyle;rounded=0;orthogonalLoop=1;jettySize=auto;html=1;exitX=1;exitY=0.5;exitDx=0;exitDy=0;entryX=0;entryY=0.5;entryDx=0;entryDy=0;" parent="WIyWlLk6GJQsqaUBKTNV-1" source="mmh_hH_gYKxoH7ZBBsEL-1" target="mmh_hH_gYKxoH7ZBBsEL-85" edge="1">
                    <mxGeometry relative="1" as="geometry"/>
                </mxCell>
                <mxCell id="mmh_hH_gYKxoH7ZBBsEL-93" value="Property" style="swimlane;fontStyle=2;align=center;verticalAlign=top;childLayout=stackLayout;horizontal=1;startSize=26;horizontalStack=0;resizeParent=1;resizeLast=0;collapsible=1;marginBottom=0;rounded=0;shadow=0;strokeWidth=1;" parent="WIyWlLk6GJQsqaUBKTNV-1" vertex="1">
                    <mxGeometry x="1180" y="927" width="160" height="160" as="geometry">
                        <mxRectangle x="230" y="140" width="160" height="26" as="alternateBounds"/>
                    </mxGeometry>
                </mxCell>
                <mxCell id="mmh_hH_gYKxoH7ZBBsEL-94" value="PropertyID" style="text;align=left;verticalAlign=top;spacingLeft=4;spacingRight=4;overflow=hidden;rotatable=0;points=[[0,0.5],[1,0.5]];portConstraint=eastwest;fontStyle=5" parent="mmh_hH_gYKxoH7ZBBsEL-93" vertex="1">
                    <mxGeometry y="26" width="160" height="22" as="geometry"/>
                </mxCell>
                <mxCell id="mmh_hH_gYKxoH7ZBBsEL-95" value="Name" style="text;align=left;verticalAlign=top;spacingLeft=4;spacingRight=4;overflow=hidden;rotatable=0;points=[[0,0.5],[1,0.5]];portConstraint=eastwest;rounded=0;shadow=0;html=0;" parent="mmh_hH_gYKxoH7ZBBsEL-93" vertex="1">
                    <mxGeometry y="48" width="160" height="28" as="geometry"/>
                </mxCell>
                <mxCell id="mmh_hH_gYKxoH7ZBBsEL-96" value="Description" style="text;align=left;verticalAlign=top;spacingLeft=4;spacingRight=4;overflow=hidden;rotatable=0;points=[[0,0.5],[1,0.5]];portConstraint=eastwest;rounded=0;shadow=0;html=0;" parent="mmh_hH_gYKxoH7ZBBsEL-93" vertex="1">
                    <mxGeometry y="76" width="160" height="28" as="geometry"/>
                </mxCell>
                <mxCell id="mmh_hH_gYKxoH7ZBBsEL-136" value="Value" style="text;align=left;verticalAlign=top;spacingLeft=4;spacingRight=4;overflow=hidden;rotatable=0;points=[[0,0.5],[1,0.5]];portConstraint=eastwest;rounded=0;shadow=0;html=0;" parent="mmh_hH_gYKxoH7ZBBsEL-93" vertex="1">
                    <mxGeometry y="104" width="160" height="28" as="geometry"/>
                </mxCell>
                <mxCell id="mmh_hH_gYKxoH7ZBBsEL-137" value="Unit" style="text;align=left;verticalAlign=top;spacingLeft=4;spacingRight=4;overflow=hidden;rotatable=0;points=[[0,0.5],[1,0.5]];portConstraint=eastwest;rounded=0;shadow=0;html=0;" parent="mmh_hH_gYKxoH7ZBBsEL-93" vertex="1">
                    <mxGeometry y="132" width="160" height="28" as="geometry"/>
                </mxCell>
                <mxCell id="mmh_hH_gYKxoH7ZBBsEL-97" value="Material-property-mapping" style="swimlane;fontStyle=2;align=center;verticalAlign=top;childLayout=stackLayout;horizontal=1;startSize=26;horizontalStack=0;resizeParent=1;resizeLast=0;collapsible=1;marginBottom=0;rounded=0;shadow=0;strokeWidth=1;" parent="WIyWlLk6GJQsqaUBKTNV-1" vertex="1">
                    <mxGeometry x="970" y="903" width="160" height="76" as="geometry">
                        <mxRectangle x="230" y="140" width="160" height="26" as="alternateBounds"/>
                    </mxGeometry>
                </mxCell>
                <mxCell id="mmh_hH_gYKxoH7ZBBsEL-98" value="MaterialID" style="text;align=left;verticalAlign=top;spacingLeft=4;spacingRight=4;overflow=hidden;rotatable=0;points=[[0,0.5],[1,0.5]];portConstraint=eastwest;fontStyle=1" parent="mmh_hH_gYKxoH7ZBBsEL-97" vertex="1">
                    <mxGeometry y="26" width="160" height="22" as="geometry"/>
                </mxCell>
                <mxCell id="mmh_hH_gYKxoH7ZBBsEL-99" value="PropertyID" style="text;align=left;verticalAlign=top;spacingLeft=4;spacingRight=4;overflow=hidden;rotatable=0;points=[[0,0.5],[1,0.5]];portConstraint=eastwest;rounded=0;shadow=0;html=0;fontStyle=1" parent="mmh_hH_gYKxoH7ZBBsEL-97" vertex="1">
                    <mxGeometry y="48" width="160" height="28" as="geometry"/>
                </mxCell>
                <mxCell id="mmh_hH_gYKxoH7ZBBsEL-100" style="edgeStyle=orthogonalEdgeStyle;rounded=0;orthogonalLoop=1;jettySize=auto;html=1;entryX=0;entryY=0.5;entryDx=0;entryDy=0;exitX=1;exitY=0.5;exitDx=0;exitDy=0;" parent="WIyWlLk6GJQsqaUBKTNV-1" source="1lBgvDwlUtv7d7Zs9Ubd-7" target="mmh_hH_gYKxoH7ZBBsEL-98" edge="1">
                    <mxGeometry relative="1" as="geometry">
                        <Array as="points">
                            <mxPoint x="869" y="454"/>
                            <mxPoint x="920" y="454"/>
                            <mxPoint x="920" y="941"/>
                            <mxPoint x="970" y="941"/>
                        </Array>
                        <mxPoint x="895" y="360" as="sourcePoint"/>
                        <mxPoint x="965" y="941" as="targetPoint"/>
                    </mxGeometry>
                </mxCell>
                <mxCell id="mmh_hH_gYKxoH7ZBBsEL-101" style="edgeStyle=orthogonalEdgeStyle;rounded=0;orthogonalLoop=1;jettySize=auto;html=1;exitX=1;exitY=0.5;exitDx=0;exitDy=0;entryX=0;entryY=0.5;entryDx=0;entryDy=0;" parent="WIyWlLk6GJQsqaUBKTNV-1" source="mmh_hH_gYKxoH7ZBBsEL-99" target="mmh_hH_gYKxoH7ZBBsEL-94" edge="1">
                    <mxGeometry relative="1" as="geometry"/>
                </mxCell>
                <mxCell id="mmh_hH_gYKxoH7ZBBsEL-104" style="edgeStyle=orthogonalEdgeStyle;rounded=0;orthogonalLoop=1;jettySize=auto;html=1;exitX=1;exitY=0.5;exitDx=0;exitDy=0;entryX=0;entryY=0.5;entryDx=0;entryDy=0;" parent="WIyWlLk6GJQsqaUBKTNV-1" source="mmh_hH_gYKxoH7ZBBsEL-45" target="mmh_hH_gYKxoH7ZBBsEL-64" edge="1">
                    <mxGeometry relative="1" as="geometry">
                        <Array as="points">
                            <mxPoint x="1620" y="145"/>
                            <mxPoint x="1620" y="60"/>
                            <mxPoint x="-190" y="60"/>
                            <mxPoint x="-190" y="517"/>
                        </Array>
                    </mxGeometry>
                </mxCell>
                <mxCell id="mmh_hH_gYKxoH7ZBBsEL-108" style="edgeStyle=orthogonalEdgeStyle;rounded=0;orthogonalLoop=1;jettySize=auto;html=1;exitX=1;exitY=0.5;exitDx=0;exitDy=0;" parent="WIyWlLk6GJQsqaUBKTNV-1" source="mmh_hH_gYKxoH7ZBBsEL-46" edge="1">
                    <mxGeometry relative="1" as="geometry">
                        <mxPoint x="1620" y="60" as="targetPoint"/>
                        <Array as="points">
                            <mxPoint x="1660" y="171"/>
                            <mxPoint x="1660" y="60"/>
                        </Array>
                    </mxGeometry>
                </mxCell>
                <mxCell id="mmh_hH_gYKxoH7ZBBsEL-109" style="edgeStyle=orthogonalEdgeStyle;rounded=0;orthogonalLoop=1;jettySize=auto;html=1;exitX=1;exitY=0.5;exitDx=0;exitDy=0;" parent="WIyWlLk6GJQsqaUBKTNV-1" source="mmh_hH_gYKxoH7ZBBsEL-59" edge="1">
                    <mxGeometry relative="1" as="geometry">
                        <mxPoint x="1620" y="60" as="targetPoint"/>
                        <Array as="points">
                            <mxPoint x="1670" y="322"/>
                            <mxPoint x="1670" y="60"/>
                        </Array>
                    </mxGeometry>
                </mxCell>
                <mxCell id="mmh_hH_gYKxoH7ZBBsEL-110" value="Set" style="swimlane;fontStyle=2;align=center;verticalAlign=top;childLayout=stackLayout;horizontal=1;startSize=26;horizontalStack=0;resizeParent=1;resizeLast=0;collapsible=1;marginBottom=0;rounded=0;shadow=0;strokeWidth=1;" parent="WIyWlLk6GJQsqaUBKTNV-1" vertex="1">
                    <mxGeometry x="940" y="138" width="160" height="110" as="geometry">
                        <mxRectangle x="230" y="140" width="160" height="26" as="alternateBounds"/>
                    </mxGeometry>
                </mxCell>
                <mxCell id="mmh_hH_gYKxoH7ZBBsEL-111" value="SetID" style="text;align=left;verticalAlign=top;spacingLeft=4;spacingRight=4;overflow=hidden;rotatable=0;points=[[0,0.5],[1,0.5]];portConstraint=eastwest;fontStyle=5" parent="mmh_hH_gYKxoH7ZBBsEL-110" vertex="1">
                    <mxGeometry y="26" width="160" height="22" as="geometry"/>
                </mxCell>
                <mxCell id="mmh_hH_gYKxoH7ZBBsEL-112" value="Name" style="text;align=left;verticalAlign=top;spacingLeft=4;spacingRight=4;overflow=hidden;rotatable=0;points=[[0,0.5],[1,0.5]];portConstraint=eastwest;rounded=0;shadow=0;html=0;" parent="mmh_hH_gYKxoH7ZBBsEL-110" vertex="1">
                    <mxGeometry y="48" width="160" height="28" as="geometry"/>
                </mxCell>
                <mxCell id="mmh_hH_gYKxoH7ZBBsEL-113" value="Description" style="text;align=left;verticalAlign=top;spacingLeft=4;spacingRight=4;overflow=hidden;rotatable=0;points=[[0,0.5],[1,0.5]];portConstraint=eastwest;rounded=0;shadow=0;html=0;" parent="mmh_hH_gYKxoH7ZBBsEL-110" vertex="1">
                    <mxGeometry y="76" width="160" height="28" as="geometry"/>
                </mxCell>
                <mxCell id="mmh_hH_gYKxoH7ZBBsEL-114" value="Material-Set-Mapping" style="swimlane;fontStyle=2;align=center;verticalAlign=top;childLayout=stackLayout;horizontal=1;startSize=26;horizontalStack=0;resizeParent=1;resizeLast=0;collapsible=1;marginBottom=0;rounded=0;shadow=0;strokeWidth=1;strokeColor=#FF0000;" parent="WIyWlLk6GJQsqaUBKTNV-1" vertex="1" collapsed="1">
                    <mxGeometry x="940" y="288" width="160" height="26" as="geometry">
                        <mxRectangle x="940" y="288" width="160" height="82" as="alternateBounds"/>
                    </mxGeometry>
                </mxCell>
                <mxCell id="mmh_hH_gYKxoH7ZBBsEL-115" value="SetID" style="text;align=left;verticalAlign=top;spacingLeft=4;spacingRight=4;overflow=hidden;rotatable=0;points=[[0,0.5],[1,0.5]];portConstraint=eastwest;fontStyle=5;strokeColor=#FF0000;" parent="mmh_hH_gYKxoH7ZBBsEL-114" vertex="1">
                    <mxGeometry y="26" width="160" height="22" as="geometry"/>
                </mxCell>
                <mxCell id="mmh_hH_gYKxoH7ZBBsEL-116" value="MaterialID" style="text;align=left;verticalAlign=top;spacingLeft=4;spacingRight=4;overflow=hidden;rotatable=0;points=[[0,0.5],[1,0.5]];portConstraint=eastwest;rounded=0;shadow=0;html=0;fontStyle=1;strokeColor=#FF0000;" parent="mmh_hH_gYKxoH7ZBBsEL-114" vertex="1">
                    <mxGeometry y="48" width="160" height="28" as="geometry"/>
                </mxCell>
                <mxCell id="mmh_hH_gYKxoH7ZBBsEL-118" style="edgeStyle=orthogonalEdgeStyle;rounded=0;orthogonalLoop=1;jettySize=auto;html=1;exitX=1;exitY=0.5;exitDx=0;exitDy=0;entryX=1;entryY=0.5;entryDx=0;entryDy=0;" parent="WIyWlLk6GJQsqaUBKTNV-1" source="mmh_hH_gYKxoH7ZBBsEL-115" target="mmh_hH_gYKxoH7ZBBsEL-111" edge="1">
                    <mxGeometry relative="1" as="geometry"/>
                </mxCell>
                <mxCell id="mmh_hH_gYKxoH7ZBBsEL-119" style="edgeStyle=orthogonalEdgeStyle;rounded=0;orthogonalLoop=1;jettySize=auto;html=1;entryX=0;entryY=0.5;entryDx=0;entryDy=0;exitX=1;exitY=0.5;exitDx=0;exitDy=0;" parent="WIyWlLk6GJQsqaUBKTNV-1" source="1lBgvDwlUtv7d7Zs9Ubd-7" target="mmh_hH_gYKxoH7ZBBsEL-116" edge="1">
                    <mxGeometry relative="1" as="geometry">
                        <Array as="points">
                            <mxPoint x="920" y="456"/>
                            <mxPoint x="920" y="350"/>
                        </Array>
                        <mxPoint x="910" y="454" as="sourcePoint"/>
                    </mxGeometry>
                </mxCell>
                <mxCell id="mmh_hH_gYKxoH7ZBBsEL-124" value="Rental-ReturnInfo-Mapping" style="swimlane;fontStyle=2;align=center;verticalAlign=top;childLayout=stackLayout;horizontal=1;startSize=26;horizontalStack=0;resizeParent=1;resizeLast=0;collapsible=1;marginBottom=0;rounded=0;shadow=0;strokeWidth=1;" parent="WIyWlLk6GJQsqaUBKTNV-1" vertex="1" collapsed="1">
                    <mxGeometry x="1200" y="188" width="160" height="26" as="geometry">
                        <mxRectangle x="1200" y="188" width="160" height="80" as="alternateBounds"/>
                    </mxGeometry>
                </mxCell>
                <mxCell id="mmh_hH_gYKxoH7ZBBsEL-125" value="RentalID" style="text;align=left;verticalAlign=top;spacingLeft=4;spacingRight=4;overflow=hidden;rotatable=0;points=[[0,0.5],[1,0.5]];portConstraint=eastwest;fontStyle=1" parent="mmh_hH_gYKxoH7ZBBsEL-124" vertex="1">
                    <mxGeometry y="26" width="160" height="26" as="geometry"/>
                </mxCell>
                <mxCell id="mmh_hH_gYKxoH7ZBBsEL-126" value="ReturnInfoID" style="text;align=left;verticalAlign=top;spacingLeft=4;spacingRight=4;overflow=hidden;rotatable=0;points=[[0,0.5],[1,0.5]];portConstraint=eastwest;rounded=0;shadow=0;html=0;fontStyle=1" parent="mmh_hH_gYKxoH7ZBBsEL-124" vertex="1">
                    <mxGeometry y="52" width="160" height="26" as="geometry"/>
                </mxCell>
                <mxCell id="mmh_hH_gYKxoH7ZBBsEL-127" value="ReturnInfo" style="swimlane;fontStyle=2;align=center;verticalAlign=top;childLayout=stackLayout;horizontal=1;startSize=26;horizontalStack=0;resizeParent=1;resizeLast=0;collapsible=1;marginBottom=0;rounded=0;shadow=0;strokeWidth=1;" parent="WIyWlLk6GJQsqaUBKTNV-1" vertex="1">
                    <mxGeometry x="1440" y="380" width="160" height="130" as="geometry">
                        <mxRectangle x="230" y="140" width="160" height="26" as="alternateBounds"/>
                    </mxGeometry>
                </mxCell>
                <mxCell id="mmh_hH_gYKxoH7ZBBsEL-129" value="ReturnInfoID" style="text;align=left;verticalAlign=top;spacingLeft=4;spacingRight=4;overflow=hidden;rotatable=0;points=[[0,0.5],[1,0.5]];portConstraint=eastwest;rounded=0;shadow=0;html=0;fontStyle=1" parent="mmh_hH_gYKxoH7ZBBsEL-127" vertex="1">
                    <mxGeometry y="26" width="160" height="26" as="geometry"/>
                </mxCell>
                <mxCell id="mmh_hH_gYKxoH7ZBBsEL-130" value="Comment" style="text;align=left;verticalAlign=top;spacingLeft=4;spacingRight=4;overflow=hidden;rotatable=0;points=[[0,0.5],[1,0.5]];portConstraint=eastwest;rounded=0;shadow=0;html=0;fontStyle=0" parent="mmh_hH_gYKxoH7ZBBsEL-127" vertex="1">
                    <mxGeometry y="52" width="160" height="26" as="geometry"/>
                </mxCell>
                <mxCell id="mmh_hH_gYKxoH7ZBBsEL-131" value="Photo" style="text;align=left;verticalAlign=top;spacingLeft=4;spacingRight=4;overflow=hidden;rotatable=0;points=[[0,0.5],[1,0.5]];portConstraint=eastwest;rounded=0;shadow=0;html=0;fontStyle=0" parent="mmh_hH_gYKxoH7ZBBsEL-127" vertex="1">
                    <mxGeometry y="78" width="160" height="26" as="geometry"/>
                </mxCell>
                <mxCell id="mmh_hH_gYKxoH7ZBBsEL-135" value="MaterialID" style="text;align=left;verticalAlign=top;spacingLeft=4;spacingRight=4;overflow=hidden;rotatable=0;points=[[0,0.5],[1,0.5]];portConstraint=eastwest;rounded=0;shadow=0;html=0;fontStyle=1" parent="mmh_hH_gYKxoH7ZBBsEL-127" vertex="1">
                    <mxGeometry y="104" width="160" height="26" as="geometry"/>
                </mxCell>
                <mxCell id="mmh_hH_gYKxoH7ZBBsEL-132" style="edgeStyle=orthogonalEdgeStyle;rounded=0;orthogonalLoop=1;jettySize=auto;html=1;exitX=1;exitY=0.5;exitDx=0;exitDy=0;entryX=0;entryY=0.5;entryDx=0;entryDy=0;" parent="WIyWlLk6GJQsqaUBKTNV-1" source="mmh_hH_gYKxoH7ZBBsEL-126" target="mmh_hH_gYKxoH7ZBBsEL-129" edge="1">
                    <mxGeometry relative="1" as="geometry"/>
                </mxCell>
                <mxCell id="mmh_hH_gYKxoH7ZBBsEL-133" style="edgeStyle=orthogonalEdgeStyle;rounded=0;orthogonalLoop=1;jettySize=auto;html=1;exitX=0;exitY=0.5;exitDx=0;exitDy=0;entryX=1;entryY=0.5;entryDx=0;entryDy=0;" parent="WIyWlLk6GJQsqaUBKTNV-1" source="mmh_hH_gYKxoH7ZBBsEL-44" target="mmh_hH_gYKxoH7ZBBsEL-125" edge="1">
                    <mxGeometry relative="1" as="geometry"/>
                </mxCell>
                <mxCell id="mmh_hH_gYKxoH7ZBBsEL-134" style="edgeStyle=orthogonalEdgeStyle;rounded=0;orthogonalLoop=1;jettySize=auto;html=1;exitX=1;exitY=0.5;exitDx=0;exitDy=0;entryX=0;entryY=0.5;entryDx=0;entryDy=0;" parent="WIyWlLk6GJQsqaUBKTNV-1" source="mmh_hH_gYKxoH7ZBBsEL-58" target="mmh_hH_gYKxoH7ZBBsEL-44" edge="1">
                    <mxGeometry relative="1" as="geometry">
                        <Array as="points">
                            <mxPoint x="330" y="303"/>
                            <mxPoint x="330" y="119"/>
                        </Array>
                    </mxGeometry>
                </mxCell>
                <mxCell id="mmh_hH_gYKxoH7ZBBsEL-139" style="edgeStyle=orthogonalEdgeStyle;rounded=0;orthogonalLoop=1;jettySize=auto;html=1;exitX=0;exitY=0.5;exitDx=0;exitDy=0;entryX=1;entryY=0.5;entryDx=0;entryDy=0;" parent="WIyWlLk6GJQsqaUBKTNV-1" source="mmh_hH_gYKxoH7ZBBsEL-135" target="1lBgvDwlUtv7d7Zs9Ubd-7" edge="1">
                    <mxGeometry relative="1" as="geometry">
                        <Array as="points">
                            <mxPoint x="1400" y="497"/>
                            <mxPoint x="1400" y="456"/>
                        </Array>
                    </mxGeometry>
                </mxCell>
                <mxCell id="0" style="edgeStyle=elbowEdgeStyle;html=1;exitX=0;exitY=0.5;exitDx=0;exitDy=0;entryX=0;entryY=0.5;entryDx=0;entryDy=0;" parent="WIyWlLk6GJQsqaUBKTNV-1" source="mmh_hH_gYKxoH7ZBBsEL-15" target="mmh_hH_gYKxoH7ZBBsEL-86" edge="1">
                    <mxGeometry relative="1" as="geometry">
                        <Array as="points">
                            <mxPoint x="380" y="601"/>
                        </Array>
                    </mxGeometry>
                </mxCell>
                <mxCell id="1" style="edgeStyle=elbowEdgeStyle;html=1;exitX=0;exitY=0.5;exitDx=0;exitDy=0;entryX=1;entryY=0.5;entryDx=0;entryDy=0;" parent="WIyWlLk6GJQsqaUBKTNV-1" source="mmh_hH_gYKxoH7ZBBsEL-73" target="mmh_hH_gYKxoH7ZBBsEL-77" edge="1">
                    <mxGeometry relative="1" as="geometry"/>
                </mxCell>
                <mxCell id="2" style="edgeStyle=elbowEdgeStyle;html=1;exitX=0;exitY=0.5;exitDx=0;exitDy=0;entryX=1;entryY=0.5;entryDx=0;entryDy=0;" parent="WIyWlLk6GJQsqaUBKTNV-1" source="mmh_hH_gYKxoH7ZBBsEL-15" target="mmh_hH_gYKxoH7ZBBsEL-78" edge="1">
                    <mxGeometry relative="1" as="geometry"/>
                </mxCell>
            </root>
        </mxGraphModel>
    </diagram>
</mxfile>